<svg xmlns="http://www.w3.org/2000/svg" viewBox="0 0 2251.07 2695.31"><defs><style>.cls-1{fill:#100;}.cls-2{fill:#b48258;}.cls-3{fill:#a0744e;}.cls-4{fill:#a87a52;}.cls-20,.cls-23,.cls-25,.cls-28,.cls-34,.cls-5,.cls-6{fill:none;}.cls-5{stroke:#ffa900;}.cls-20,.cls-21,.cls-23,.cls-24,.cls-25,.cls-26,.cls-30,.cls-33,.cls-34,.cls-35,.cls-5,.cls-6{stroke-miterlimit:10;}.cls-5,.cls-6{stroke-width:9px;}.cls-6{stroke:#ffbf00;}.cls-7,.cls-9{fill:#2a1a0a;}.cls-8{fill:#533724;}.cls-9{stroke:#2a1a0a;}.cls-10,.cls-9{stroke-linecap:round;stroke-linejoin:round;stroke-width:26px;}.cls-10{fill:#3d2717;stroke:#3d2717;}.cls-11,.cls-22,.cls-32,.cls-33{fill:#fff;}.cls-12{fill:#1d1d1b;}.cls-13{fill:#8b150c;}.cls-14{fill:#63150c;}.cls-15{fill:#000807;}.cls-16{fill:#08554b;}.cls-17{fill:#2e1d11;}.cls-18{fill:#c9c9c9;}.cls-19{fill:#dfdfdf;}.cls-20,.cls-23,.cls-25,.cls-29,.cls-30,.cls-34{stroke:#bababa;}.cls-20,.cls-21{stroke-width:10px;}.cls-21,.cls-24,.cls-26,.cls-32,.cls-33,.cls-35{stroke:#fff;}.cls-22{font-size:71.97px;font-family:IBMPlexMono-Bold, IBM Plex Mono;font-weight:700;}.cls-23,.cls-24{stroke-width:6px;fill-rule:evenodd;}.cls-24{fill:#141414;}.cls-25,.cls-26{stroke-width:20px;}.cls-26{fill:#ffd600;}.cls-27{fill:#a66a40;}.cls-29,.cls-30{fill:#bababa;}.cls-29,.cls-32{stroke-miterlimit:5.58;stroke-width:8px;}.cls-31{fill:#34b298;isolation:isolate;}.cls-34,.cls-35{stroke-width:25px;}.cls-35{fill:#795548;}.cls-36{fill:#d7ccc8;}.cls-37{fill:#6d4c41;}.cls-38{fill:#4e342e;}.cls-39{fill:#261512;}.cls-40{fill:#000001;}</style></defs><g id="peau_visage" data-name="peau visage"><polygon class="cls-1" points="572.52 983.23 739.07 556.43 1434.13 579.86 1642.11 936.38 1621.29 1511.52 1350.64 1659.86 822.35 1581.78 629.77 1334.55 572.52 983.23"/><path class="cls-2" d="M1045.15,1478c37.95,13.21,77.79,22.55,118.1,23.14,51.74.75,102-9.84,147.07-35.87a206,206,0,0,0,28-19c3.17-2.6,6.31-5.25,9.46-7.87-11.29-6-20.86-12.51-28-19.63-57.26-57.25-16-253.86-16-253.86H996.12s31.82,184.77-5.41,247.83c-6.35,10.75-16.72,19.65-29.54,27A490.45,490.45,0,0,0,1045.15,1478Z"/><path class="cls-3" d="M778.11,1475.3s175.37.58,212.6-62.48S996.12,1165,996.12,1165H1303.8s-41.26,196.61,16,253.86,272.86,76.64,272.86,76.64l-419,413.79L757.29,1633.42Z"/><path class="cls-2" d="M1357.5,1443.31c-1.4,1.16-2.75,2.3-4,3.39-9.1,7.59-18.14,14.94-28.17,21.26a285.52,285.52,0,0,1-39.88,21c-45.43,19.43-96.57,25.72-145.63,21-41.26-4-81.81-15.41-120.17-30.84a499.32,499.32,0,0,1-68.86-33.84c-64.47,30.39-172.63,30-172.63,30l-20.82,158.12,416.39,275.86,419-413.79S1440,1481.77,1357.5,1443.31Z"/><g id="Oreille"><path class="cls-4" d="M1498.85,895.61c2.33,19.11,4.6,38.95-1.34,57.27s-22.6,34.66-41.83,33.7-33.28-17.51-44.67-32.9c-38.26-51.7-74.66-109.6-76-173.91-.37-17.59,2.24-36,12.36-50.4,18.16-25.86,56.71-31,85.55-18.08s49.11,39.8,63.4,68c11.42,22.55,19.93,47,21.16,72.23s-5.31,51.42-21.27,71"/><path class="cls-2" d="M1503.85,888.61c2.33,19.11,4.6,38.95-1.34,57.27s-22.6,34.66-41.83,33.7-33.28-17.51-44.67-32.9c-38.26-51.7-74.66-109.6-76-173.91-.37-17.59,2.24-36,12.36-50.4,18.16-25.86,56.71-31,85.55-18.08s49.11,39.8,63.4,68c11.42,22.55,19.93,47,21.16,72.23s-5.31,51.42-21.27,71"/></g><ellipse class="cls-5" cx="1455.91" cy="1092.05" rx="99.95" ry="126.4"/><ellipse class="cls-6" cx="1455.91" cy="1086.57" rx="99.95" ry="126.4"/><g id="Oreille-2" data-name="Oreille"><path class="cls-4" d="M1464.09,980.06a15.43,15.43,0,0,1-3-6.29,3.8,3.8,0,0,1-1.28-.23,13.09,13.09,0,0,1-3.69-2l-.32-.19c-3.84-2.42-4.94-6.9-4.48-11.22a8.33,8.33,0,0,1,2.38-6.82,4.85,4.85,0,0,1,1.41-1,5.06,5.06,0,0,1,1.2-2.25,22,22,0,0,1,2.62-2.49,5.64,5.64,0,0,1-.19-1.35,42.08,42.08,0,0,0-.89-8.84c-1.74-2.14-3.37-4.41-5.23-6.49a4.89,4.89,0,0,1-1.29-3.94,15.93,15.93,0,0,0-3.31-1.75,33.15,33.15,0,0,0-7.81-1.9c-5.68.3-11.57,2.37-16.29,4.52a111.69,111.69,0,0,0-19.62,12c-.71.52-1.46,1.07-2.2,1.65q4.43,6.18,8.93,12.26c11.39,15.39,25.54,32,44.67,32.9a33.51,33.51,0,0,0,13.41-2.15A21.59,21.59,0,0,1,1464.09,980.06Z"/><path class="cls-2" d="M1459.79,973.54a13.09,13.09,0,0,1-3.69-2l-.32-.19c-3.84-2.42-4.94-6.9-4.48-11.22a8.33,8.33,0,0,1,2.38-6.82,4.85,4.85,0,0,1,1.41-1,5.06,5.06,0,0,1,1.2-2.25,22,22,0,0,1,2.62-2.49,5.64,5.64,0,0,1-.19-1.35,42.08,42.08,0,0,0-.89-8.84c-1.74-2.14-3.37-4.41-5.23-6.49a4.89,4.89,0,0,1-1.29-3.94,15.93,15.93,0,0,0-3.31-1.75,33.15,33.15,0,0,0-7.81-1.9c-5.68.3-11.57,2.37-16.29,4.52a99.47,99.47,0,0,0-15.23,8.87q3.64,5.05,7.34,10c11.39,15.39,25.54,32,44.67,32.9,1,0,2,0,3,0a15.65,15.65,0,0,1-2.66-5.81A3.8,3.8,0,0,1,1459.79,973.54Z"/></g><path class="cls-2" d="M1626.5,740.79s-122.32,218.61-148.34,294.08-149.66,260.24-317.5,260.24c-39,0-243.43-111.69-295.48-197.57S793.87,975,770.45,756.41s68.41-382.56,68.41-382.56l530,52Z"/><g id="Oreille-3" data-name="Oreille"><path class="cls-4" d="M828.85,895.61c2.33,19.11,4.6,38.95-1.34,57.27s-22.6,34.66-41.83,33.7S752.4,969.07,741,953.68c-38.26-51.7-74.66-109.6-76-173.91-.37-17.59,2.24-36,12.36-50.4,18.16-25.86,56.71-31,85.55-18.08s49.11,39.8,63.4,68c11.42,22.55,19.93,47,21.16,72.23s-5.31,51.42-21.27,71"/><path class="cls-2" d="M833.85,888.61c2.33,19.11,4.6,38.95-1.34,57.27s-22.6,34.66-41.83,33.7S757.4,962.07,746,946.68c-38.26-51.7-74.66-109.6-76-173.91-.37-17.59,2.24-36,12.36-50.4,18.16-25.86,56.71-31,85.55-18.08s49.11,39.8,63.4,68c11.42,22.55,19.93,47,21.16,72.23s-5.31,51.42-21.27,71"/></g><ellipse class="cls-5" cx="785.91" cy="1092.05" rx="99.95" ry="126.4"/><ellipse class="cls-6" cx="785.91" cy="1086.57" rx="99.95" ry="126.4"/><g id="Oreille-4" data-name="Oreille"><path class="cls-4" d="M794.09,980.06a15.43,15.43,0,0,1-3-6.29,3.8,3.8,0,0,1-1.28-.23,13.09,13.09,0,0,1-3.69-2l-.32-.19c-3.84-2.42-4.94-6.9-4.48-11.22a8.33,8.33,0,0,1,2.38-6.82,4.85,4.85,0,0,1,1.41-1,5.06,5.06,0,0,1,1.2-2.25,22,22,0,0,1,2.62-2.49,5.64,5.64,0,0,1-.19-1.35,42.08,42.08,0,0,0-.89-8.84c-1.74-2.14-3.37-4.41-5.23-6.49a4.89,4.89,0,0,1-1.29-3.94,15.93,15.93,0,0,0-3.31-1.75,33.15,33.15,0,0,0-7.81-1.9c-5.68.3-11.57,2.37-16.29,4.52a111.69,111.69,0,0,0-19.62,12c-.71.52-1.46,1.07-2.2,1.65q4.42,6.18,8.93,12.26c11.39,15.39,25.54,32,44.67,32.9a33.51,33.51,0,0,0,13.41-2.15A21.59,21.59,0,0,1,794.09,980.06Z"/><path class="cls-2" d="M789.79,973.54a13.09,13.09,0,0,1-3.69-2l-.32-.19c-3.84-2.42-4.94-6.9-4.48-11.22a8.33,8.33,0,0,1,2.38-6.82,4.85,4.85,0,0,1,1.41-1,5.06,5.06,0,0,1,1.2-2.25,22,22,0,0,1,2.62-2.49,5.64,5.64,0,0,1-.19-1.35,42.08,42.08,0,0,0-.89-8.84c-1.74-2.14-3.37-4.41-5.23-6.49a4.89,4.89,0,0,1-1.29-3.94,15.93,15.93,0,0,0-3.31-1.75,33.15,33.15,0,0,0-7.81-1.9c-5.68.3-11.57,2.37-16.29,4.52a99.47,99.47,0,0,0-15.23,8.87q3.65,5.05,7.34,10c11.39,15.39,25.54,32,44.67,32.9,1,0,2,0,3.05,0a15.65,15.65,0,0,1-2.66-5.81A3.8,3.8,0,0,1,789.79,973.54Z"/></g></g><g id="Details_visages" data-name="Details visages"><path class="cls-7" d="M1135.7,705.36a80.68,80.68,0,0,1-8.4.77c-2.74.14-5.42.15-8.06.13-5.26-.16-10.48-.23-15.51-.7-2.53-.2-5-.5-7.5-.79s-5-.53-7.38-.88-4.85-.73-7.25-1.15c-1.2-.23-2.39-.41-3.59-.6l-3.57-.62c-4.73-.88-9.36-2.07-13.92-3.3-2.28-.65-4.53-1.38-6.77-2.19-1.12-.42-2.23-.82-3.35-1.19l-3.33-1.22q-3.33-1.27-6.66-2.64l-6.7-2.41a122.74,122.74,0,0,0-13.59-4l-1.72-.43-1.71-.35-3.44-.69c-2.29-.44-4.6-1-6.89-1.3l-6.9-1.12c-2.29-.29-4.59-.52-6.9-.78s-4.58-.4-6.89-.59c-1.15-.07-2.32-.19-3.46-.22l-3.44,0-3.45-.08-3.42.13-3.44.12-3.38.35c-1.13.12-2.3.17-3.41.35l-3.36.54-1.7.27-1.64.38-3.33.75a74.84,74.84,0,0,0-12.82,4.6,55.88,55.88,0,0,0-11.62,7.37,45.38,45.38,0,0,0-5.09,4.82L921,699.94l-1.09,1.38c-.34.47-.7.94-1,1.42s-.66,1-.9,1.4l-.17.28a2,2,0,0,1-3.64-1.51c2.63-10.76,9.44-19.63,17.7-26.9l3.19-2.62c1.1-.84,2.24-1.59,3.37-2.4.57-.38,1.13-.8,1.71-1.17l1.76-1.06c1.18-.7,2.36-1.45,3.57-2.11l3.68-1.87,1.86-.92,1.89-.81,3.81-1.6c1.27-.54,2.57-.93,3.86-1.4l3.91-1.33,3.94-1.09,4-1.07,4-.84,4-.82c1.34-.24,2.67-.4,4-.61,2.67-.35,5.39-.85,8.06-1a207.38,207.38,0,0,1,32.09-.43c5.28.4,10.64.53,15.91.95l8,.49q3.94.38,7.9.83c2.62.35,5.28.63,7.84,1.17s5.13,1.12,7.66,1.8a94.41,94.41,0,0,1,14.73,5.31c2.38,1.08,4.79,2.12,7.1,3.34s4.61,2.47,6.88,3.78,4.52,2.66,6.74,4,4.36,3,6.49,4.55a112.1,112.1,0,0,1,23.54,22.58,2.3,2.3,0,0,1-.44,3.21,2.19,2.19,0,0,1-1,.44Z"/><path class="cls-7" d="M1255.25,701.69a112.06,112.06,0,0,1,23.53-22.58c2.13-1.58,4.29-3.09,6.49-4.55s4.47-2.75,6.74-4,4.57-2.56,6.88-3.78,4.72-2.26,7.1-3.34a94.15,94.15,0,0,1,14.74-5.31q3.8-1,7.65-1.8c2.56-.54,5.23-.82,7.84-1.17s5.27-.58,7.9-.83l8-.49c5.27-.42,10.64-.55,15.91-.95a207.51,207.51,0,0,1,32.1.43c2.67.17,5.38.67,8.05,1,1.34.21,2.68.37,4,.61l4,.82,4,.84,4,1.07,3.94,1.09,3.91,1.33c1.29.47,2.59.86,3.87,1.4l3.8,1.6,1.89.81,1.86.92,3.68,1.87c1.21.66,2.39,1.41,3.57,2.11l1.76,1.06c.59.37,1.15.79,1.72,1.17,1.12.81,2.26,1.56,3.36,2.4l3.19,2.62c8.26,7.27,15.07,16.14,17.7,26.9a2,2,0,0,1-3.63,1.51l-.18-.28c-.24-.39-.57-.93-.89-1.4s-.69-1-1-1.42l-1.09-1.38-1.16-1.33a44.54,44.54,0,0,0-5.09-4.82,55.88,55.88,0,0,0-11.62-7.37,75,75,0,0,0-12.81-4.6l-3.33-.75-1.65-.38-1.7-.27-3.36-.54c-1.11-.18-2.27-.23-3.4-.35l-3.39-.35-3.44-.12-3.41-.13-3.46.08-3.43,0c-1.15,0-2.31.15-3.46.22-2.31.19-4.58.23-6.9.59s-4.6.49-6.9.78l-6.9,1.12c-2.29.29-4.6.86-6.89,1.3l-3.44.69-1.71.35-1.72.43a122.74,122.74,0,0,0-13.59,4l-6.69,2.41c-2.23.91-4.44,1.79-6.66,2.64l-3.34,1.22c-1.12.37-2.23.77-3.35,1.19-2.24.81-4.49,1.54-6.77,2.19-4.56,1.23-9.19,2.42-13.92,3.3l-3.57.62c-1.19.19-2.39.37-3.59.6-2.39.42-4.8.82-7.24,1.15s-4.9.63-7.39.88-5,.59-7.49.79c-5,.47-10.26.54-15.51.7-2.65,0-5.32,0-8.06-.13a80.86,80.86,0,0,1-8.41-.77l-.1,0a2.29,2.29,0,0,1-1.93-2.61A2.22,2.22,0,0,1,1255.25,701.69Z"/><g id="Lunettes"><path class="cls-8" d="M1369.27,699.52a118.36,118.36,0,0,1,84.58,35.32,121.57,121.57,0,0,1,0,171,118.94,118.94,0,0,1-169.15,0,121.57,121.57,0,0,1,0-171,118.36,118.36,0,0,1,84.57-35.32m0-26c-80.47,0-145.7,65.73-145.7,146.8s65.23,146.8,145.7,146.8S1515,901.4,1515,820.32s-65.24-146.8-145.71-146.8Z"/><path class="cls-8" d="M1023.32,698.47a118.42,118.42,0,0,1,84.58,35.32,121.57,121.57,0,0,1,0,171,118.92,118.92,0,0,1-169.15,0,121.57,121.57,0,0,1,0-171,118.38,118.38,0,0,1,84.57-35.32m0-26c-80.47,0-145.7,65.73-145.7,146.81s65.23,146.8,145.7,146.8S1169,900.35,1169,819.28s-65.24-146.81-145.71-146.81Z"/><path class="cls-8" d="M1151.52,790.24l.3-1.2.35-1.14.73-2.25.8-2.14c.28-.7.57-1.36.86-2,.58-1.4,1.23-2.61,1.87-3.93s1.34-2.48,2-3.67a1,1,0,0,1,.68-.43,5.63,5.63,0,0,1,.82,0,5.6,5.6,0,0,0,1.52-.35c1-.3,2-.58,3-.86,2-.57,4-1.06,6.06-1.56q6.12-1.47,12.53-2.41a87.87,87.87,0,0,1,26.7,0q6.4.94,12.53,2.41t12,3.32c.7,1.25,1.39,2.44,2,3.71s1.29,2.53,1.86,3.94,1.16,2.73,1.69,4.12l.75,2.2c.24.72.47,1.49.67,2.28-1.39.88-2.67,1.58-4,2.4s-2.51,1.43-3.75,2.16c-2.46,1.46-4.79,2.71-7.07,4-3.4-1.07-6.83-2-10.25-2.84s-6.82-1.46-10.17-2a62.15,62.15,0,0,0-19.38,0c-3.35.5-6.75,1.14-10.17,2-1.71.42-3.42.84-5.13,1.33-.85.24-1.71.47-2.56.73a4.2,4.2,0,0,0-1.26.48c-.37.3-.71.69-1.26.44l-3.44-1.9c-1.19-.7-2.37-1.32-3.61-2.06s-2.48-1.46-3.77-2.23l-2-1.23-1-.61Z"/></g><path class="cls-9" d="M1029.57,810.07c11,0,20.33,17.49,23.7,41.81a146.22,146.22,0,0,0,1.35-20c0-34.14-11.22-61.81-25-61.81s-25,27.67-25,61.81a146.22,146.22,0,0,0,1.35,20C1009.24,827.56,1018.57,810.07,1029.57,810.07Z"/><ellipse class="cls-10" cx="1029.57" cy="851.88" rx="23.7" ry="41.81"/><ellipse class="cls-11" cx="1046.46" cy="810.79" rx="5.86" ry="16.55"/><path class="cls-12" d="M1067.21,820c-.93-4.89-1.87-9.71-3-14.39a111,111,0,0,0-3.92-13.57,63.53,63.53,0,0,0-5.81-12.18,44,44,0,0,0-8.38-9.71c-6.48-5.58-14.67-8.77-22.26-7.75a24.39,24.39,0,0,0-5.61,1.5,27,27,0,0,0-5.31,2.89,31.37,31.37,0,0,0-4.8,4,38.68,38.68,0,0,0-4.18,4.91,46,46,0,0,0-3.43,5.57,61.62,61.62,0,0,0-2.72,6.19A91.34,91.34,0,0,0,994.08,801c-1,4.69-1.75,9.53-2.51,14.45a67.07,67.07,0,0,1-1.7,8,33.16,33.16,0,0,1-3.44,8.24l-.64,1c-.23.34-.49.67-.73,1a21.32,21.32,0,0,1-1.66,1.94,20.92,20.92,0,0,1-2,1.75,16.86,16.86,0,0,1-2.31,1.45c-.41.21-.82.42-1.23.61l-1.29.46a13.51,13.51,0,0,1-2.63.66,21.14,21.14,0,0,1-4.92.15,30.83,30.83,0,0,1-4.27-.64,33.54,33.54,0,0,1-4-1.07,34.69,34.69,0,0,1-7.45-3.62,42.58,42.58,0,0,1-6.39-5c-1-.89-1.9-1.88-2.82-2.82s-1.78-1.94-2.57-3a47.94,47.94,0,0,1-4.41-6.37,49.9,49.9,0,0,1-3.22-6.88,40.62,40.62,0,0,0,10,10.79,17.24,17.24,0,0,0,1.49,1c.5.33,1,.66,1.52,1,1.07.56,2.08,1.18,3.19,1.64a45,45,0,0,0,6.59,2.4c2.22.64,4.43,1.09,6.6,1.55,1.1.15,2.17.4,3.26.51a26.87,26.87,0,0,0,3.16.34,10.42,10.42,0,0,0,2.54-.17,3.87,3.87,0,0,0,1-.31l.48-.18.43-.25a8.39,8.39,0,0,0,3-3.38,22.83,22.83,0,0,0,2.06-5.65,56.18,56.18,0,0,0,1.13-6.69c.59-5,1.17-10,2.08-15.15a101.84,101.84,0,0,1,3.84-15.44,74.8,74.8,0,0,1,3.1-7.6,58.46,58.46,0,0,1,4.22-7.31,48.3,48.3,0,0,1,11.9-12.32,40.33,40.33,0,0,1,7.76-4.38,36.26,36.26,0,0,1,26.72-.67,48,48,0,0,1,15,8.71,55.22,55.22,0,0,1,11.15,12.86,77.65,77.65,0,0,1,7,14.82c3.59,10.17,5.29,20.42,6.9,30.29a6.5,6.5,0,0,1-12.8,2.26Z"/><path class="cls-12" d="M984,819.83a65.38,65.38,0,0,1-14.88-4.35A50.13,50.13,0,0,1,956,807.39a40.14,40.14,0,0,1-9.32-11.79A32.27,32.27,0,0,1,943,781.66a30.73,30.73,0,0,0,6.43,12.15,35.08,35.08,0,0,0,10.34,8.25c7.75,4.07,16.56,5.31,25.08,4.8Z"/><path class="cls-12" d="M987.14,792.78a32.9,32.9,0,0,1-12.91-6.36,31.78,31.78,0,0,1-8.39-10.79A45.42,45.42,0,0,1,962,763.42a66.43,66.43,0,0,1-.87-12.3,64.38,64.38,0,0,0,3.75,11.44,40.73,40.73,0,0,0,6,9.85,24.32,24.32,0,0,0,8.3,6.5,22.45,22.45,0,0,0,9.61,2,6.07,6.07,0,1,1,.07,12.13,5.92,5.92,0,0,1-1.47-.18Z"/><path class="cls-9" d="M1357.89,810.07c-11,0-20.33,17.49-23.7,41.81a146.22,146.22,0,0,1-1.35-20c0-34.14,11.22-61.81,25.05-61.81s25,27.67,25,61.81a146.22,146.22,0,0,1-1.35,20C1378.22,827.56,1368.89,810.07,1357.89,810.07Z"/><ellipse class="cls-10" cx="1357.89" cy="851.88" rx="23.7" ry="41.81"/><ellipse class="cls-11" cx="1377" cy="810.79" rx="5.86" ry="16.55"/><path class="cls-12" d="M1307.45,817.69c1.61-9.87,3.31-20.12,6.9-30.29a77.65,77.65,0,0,1,7-14.82,55.22,55.22,0,0,1,11.15-12.86,48,48,0,0,1,15-8.71,36.26,36.26,0,0,1,26.72.67,40.33,40.33,0,0,1,7.76,4.38,48.3,48.3,0,0,1,11.9,12.32,58.46,58.46,0,0,1,4.22,7.31,74.8,74.8,0,0,1,3.1,7.6,101.84,101.84,0,0,1,3.84,15.44c.91,5.12,1.49,10.18,2.08,15.15a56.18,56.18,0,0,0,1.13,6.69,22.83,22.83,0,0,0,2.06,5.65,8.39,8.39,0,0,0,3,3.38l.43.25.48.18a3.87,3.87,0,0,0,1,.31,10.42,10.42,0,0,0,2.54.17,26.87,26.87,0,0,0,3.16-.34c1.09-.11,2.16-.36,3.26-.51,2.17-.46,4.38-.91,6.6-1.55a45,45,0,0,0,6.59-2.4c1.11-.46,2.12-1.08,3.19-1.64.52-.31,1-.64,1.52-1a17.24,17.24,0,0,0,1.49-1,40.62,40.62,0,0,0,10-10.79,49.9,49.9,0,0,1-3.22,6.88,47.94,47.94,0,0,1-4.41,6.37c-.79,1.05-1.72,2-2.57,3s-1.83,1.93-2.82,2.82a42.58,42.58,0,0,1-6.39,5,34.69,34.69,0,0,1-7.45,3.62,33.54,33.54,0,0,1-4,1.07,30.83,30.83,0,0,1-4.27.64,21.14,21.14,0,0,1-4.92-.15,13.51,13.51,0,0,1-2.63-.66l-1.29-.46c-.41-.19-.82-.4-1.23-.61a16.27,16.27,0,0,1-2.31-1.45,20.92,20.92,0,0,1-2-1.75,21.32,21.32,0,0,1-1.66-1.94c-.24-.33-.5-.66-.73-1l-.64-1a33.16,33.16,0,0,1-3.44-8.24,67.07,67.07,0,0,1-1.7-8c-.76-4.92-1.54-9.76-2.51-14.45a91.34,91.34,0,0,0-3.75-13.52,61.62,61.62,0,0,0-2.72-6.19,46,46,0,0,0-3.43-5.57,38.68,38.68,0,0,0-4.18-4.91,31.37,31.37,0,0,0-4.8-4,27,27,0,0,0-5.31-2.89,24.39,24.39,0,0,0-5.61-1.5c-7.59-1-15.78,2.17-22.26,7.75a44,44,0,0,0-8.38,9.71,63.53,63.53,0,0,0-5.81,12.18,111,111,0,0,0-3.92,13.57c-1.09,4.68-2,9.5-3,14.39a6.5,6.5,0,0,1-12.8-2.26Z"/><path class="cls-12" d="M1402.62,806.86c8.52.51,17.33-.73,25.08-4.8a35.08,35.08,0,0,0,10.34-8.25,30.73,30.73,0,0,0,6.43-12.15,32.27,32.27,0,0,1-3.72,13.94,40.14,40.14,0,0,1-9.32,11.79,50.13,50.13,0,0,1-13.08,8.09,65.38,65.38,0,0,1-14.88,4.35Z"/><path class="cls-12" d="M1398.66,780.89a22.45,22.45,0,0,0,9.61-2,24.32,24.32,0,0,0,8.3-6.5,40.73,40.73,0,0,0,6-9.85,64.38,64.38,0,0,0,3.75-11.44,66.43,66.43,0,0,1-.87,12.3,45.42,45.42,0,0,1-3.81,12.21,31.78,31.78,0,0,1-8.39,10.79,32.9,32.9,0,0,1-12.91,6.36l-.23.06a6.06,6.06,0,1,1-2.93-11.76A5.93,5.93,0,0,1,1398.66,780.89Z"/><path class="cls-3" d="M1151,999a52.27,52.27,0,0,0,102.92-2c-13.41,8.73-32.24,14.18-53.11,14.18C1181.62,1011.17,1164.14,1006.56,1151,999Z"/><path class="cls-13" d="M1206,1155.37c-36.47,0-73.79-10.85-94.59-21.6-22.06-8.37-38.59-46.59-42-55,4.64,3.44,19.68,13.93,32,15.34a102.84,102.84,0,0,0,11.13.48c7.46,0,16.9-.41,27.83-.87,13.94-.6,31.28-1.34,50.51-1.47h1.38c41,0,63.45,12.67,88.15,34.57C1262.47,1150.4,1230.09,1155.37,1206,1155.37Z"/><path class="cls-13" d="M1070.57,1080.2c5.81,4.19,19.28,13,30.81,14.36a101.13,101.13,0,0,0,11.19.49c7.47,0,16.91-.41,27.85-.87,13.93-.6,31.27-1.34,50.49-1.47h1.38c20,0,36,2.91,50.46,9.16,12,5.19,23.11,12.68,37,25-17.91,23.15-49.91,28-73.73,28-36.39,0-73.61-10.82-94.36-21.54l-.06,0,0,0c-20.61-7.82-36.43-42.21-41-53.08m-2.27-3s17.75,47.42,42.91,57c21.12,10.91,59,21.65,94.82,21.65,30.2,0,59-7.62,75.09-29.17-24.73-22-46.93-35-88.83-35h-1.38c-34.09.23-61.25,2.34-78.34,2.34a101.78,101.78,0,0,1-11.07-.48c-14.75-1.68-33.2-16.32-33.2-16.32Z"/><path class="cls-14" d="M1279.54,1126c-73.6-10.44-112.54-11.67-135.87-12.41-14.3-.46-23.74-.76-32.35-2.83-18.34-4.41-34.87-23.76-40.54-31,5.76,4.12,19.34,13.06,30.66,14.35a102.84,102.84,0,0,0,11.13.48c7.46,0,16.9-.41,27.83-.87,13.94-.6,31.28-1.34,50.51-1.47h1.38C1232.81,1092.2,1255.19,1104.56,1279.54,1126Z"/><path class="cls-14" d="M1073.4,1082.18c6.68,4.52,18,11.25,28,12.38a101.13,101.13,0,0,0,11.19.49c7.47,0,16.91-.41,27.85-.87,13.93-.6,31.27-1.34,50.49-1.47h1.38c20,0,36,2.91,50.46,9.16,11.48,5,22.13,12,35.2,23.37-72.56-10.22-111.1-11.45-134.26-12.18-14.27-.46-23.69-.76-32.25-2.82-16.2-3.9-31-19.58-38-28.06m-5.1-4.93s19.88,28.42,42.91,34,50.31-1.58,169.91,15.48c-24.73-22-46.93-35-88.83-35h-1.38c-34.09.23-61.25,2.34-78.34,2.34a101.78,101.78,0,0,1-11.07-.48c-14.75-1.68-33.2-16.32-33.2-16.32Z"/></g><g id="Vêtements"><path class="cls-15" d="M875.26,1461.3s216.41,388.12,291.47,390.72S1422,1463.85,1422,1463.85s192.41,9.09,275.49,107.55,70.41,561.68,70.41,561.68H438.05s-46.84-456,65.06-556.91S875.26,1461.3,875.26,1461.3Z"/><path class="cls-16" d="M1565.86,1852c4.54,11.21,8.49,22.66,12.15,34.21s6.93,23.23,9.84,35a483.23,483.23,0,0,1,12.33,72c2.15,24.37,2.19,49.16-1.46,73.84-.91,6.16-2,12.32-3.49,18.43s-3.08,12.2-5.11,18.2a184.88,184.88,0,0,1-6.94,17.76,180.57,180.57,0,0,1-8.92,17,10,10,0,1,1-17.21-10.23c.13-.2.27-.43.41-.63,13-18.52,21.51-40.42,26.51-63.27s6.68-46.74,6.22-70.59a474,474,0,0,0-7.24-71.51q-3.09-17.79-7.35-35.38C1572.76,1875.18,1569.62,1863.51,1565.86,1852Z"/><path class="cls-16" d="M715.86,1852l.34-2.26.15-1.13v-.13a.18.18,0,0,0,0,0c.46.06.13,0,.22.07l-.05.27-.1.56-.72,4.51-1.32,9q-1.26,9-2.37,18.11-2.22,18.13-3.92,36.3c-2.26,24.22-3.87,48.49-4.46,72.72s-.2,48.44,2.28,72.21a255.2,255.2,0,0,0,5.89,34.9,134.37,134.37,0,0,0,5.15,16.32,72.4,72.4,0,0,0,7.36,14.31,10,10,0,1,1-16.52,11.3c-.13-.19-.26-.38-.37-.58l-.06-.09a92.44,92.44,0,0,1-8.1-18.72,153.26,153.26,0,0,1-4.57-18.88,272.82,272.82,0,0,1-3.75-37.5c-.87-24.85.47-49.44,2.71-73.86s5.55-48.66,9.48-72.76q3-18.09,6.42-36.06,1.73-9,3.6-17.93l1.93-8.94,1-4.46.14-.56.08-.28c.11,0-.21-.14.27,0,0,.06,0,.06,0,.1l0,.14-.23,1.12Z"/></g><g id="Cheveux_front" data-name="Cheveux front"><path class="cls-17" d="M852.49,277.63c-8.81-28,5.3-60,29.16-77.1s55.31-21,84.28-16.21c15,2.48,30.48,7.06,44.91,2.41,10-3.22,18.12-10.53,25.62-17.91,33.55-33,62.87-72.23,104.89-93.43s103.07-15.67,124.15,26.4c7.36,14.67,9.86,33.16,23.34,42.52,29.61,20.55,85.42-19.56,100.31,13.26,4.63,10.21.87,22.14,2.11,33.28,3,27,33.53,41.85,60.56,44.55s55.64-1.32,80.3,10.06c7.08,3.27,14.25,8.78,15,16.55,1.37,15.05-21.7,24.54-19.11,39.44,1.87,10.84,16.09,14.39,26.88,12.25s21.51-7.5,32.27-5.22c19.17,4.07,25.32,28.95,22.15,48.28s-11.61,38.93-6.43,57.83c12.41,45.25,91.36,52.39,92,99.32.21,16.44-10.45,30.76-16.11,46.2-13,35.48,4.27,79.35,38,96.47,17.55,8.92,37.88,10.94,55.81,19s34.34,26.37,29.83,45.54c-3.49,14.81-18.37,25.28-20.54,40.34-5.32,37.06,62,44,70.08,80.52,9.4,42.48-67.83,62.41-65.25,105.85.73,12.27,8.28,23.85,6.65,36-4.52,33.92-64.64,27.33-78.68,58.55-9.34,20.77,8.36,43.69,27,56.73s41.36,24.68,48.26,46.38c10.25,32.26-20.39,61.88-47.93,81.56s-59,47.68-50.84,80.53c5.55,22.4,29.19,40.14,25.71,62.95-2.94,19.28-24.51,31.51-27.74,50.74-5.56,33,44.77,55.6,39.57,88.68-6,38.07-79,47.2-68.56,84.29,5,17.86,29,25.62,33,43.74,8.3,37.4-72.38,54.78-56.73,89.75,4.42,9.89,16.56,17.55,14.23,28.13-.85,3.85-3.6,7-6.52,9.66-27.28,24.84-78,14.05-92.75-19.76,5.4,11.39,20.79,16.71,32.07,11.1s16.32-21.1,10.49-32.27c-7-13.45-24.13-16.91-38.41-22s-29.65-18.32-24.52-32.58c4.33-12,21.16-16.52,24.23-28.94,3.15-12.78-10.59-23.47-23.33-26.82s-27.27-3.86-36.69-13c-19.1-18.65.36-50.73,21.82-66.6s48.7-35,44.37-61.34c-2.77-16.89-18-28.32-29.9-40.6S1510,1400.89,1520,1387c4.45-6.14,11.9-9.59,16.29-15.78,8.57-12.07,2.17-29.3-7.66-40.38s-22.88-19.49-30.22-32.35c-28.15-49.34,46.65-102.75,39.78-159.13-5.11-42-53.48-67.32-62.46-108.68-11.26-51.9,42.28-92.93,63.2-141.75,7.08-16.53,9-38.91-5.51-49.61-7.66-5.68-18.17-6.49-25.64-12.43-21.7-17.23,1.14-51.46-1.14-79.08-4.52-54.75-97.05-52.48-120.7-102.07-11.64-24.42-11.66-64.46-38.72-64.88-12.19-.19-24,10-35.51,5.91-12.89-4.54-14.14-22.35-23-32.77-15.32-18-44.92-7.37-63.66,7.07s-40.44,32.69-63,25.55c-31.93-10.1-38.67-64.31-72.15-64.68-10.68-.12-20.32,5.95-30.55,9-62.32,18.56-121.81-74.92-181.31-48.7,21.36-4.7,37.41,23.47,31.44,44.51s-24.29,35.71-39.64,51.29-29.3,37-23.2,58c3.42,11.77,12.84,21.66,13.64,33.89,1.38,21.12-21.74,33.92-39.44,45.53C738.06,769.82,729.39,890,757,985.07c6.59,22.73,14.82,46.33,10,69.52-6.51,31.55-36.39,58.45-30.35,90.09,4.91,25.72,31,40.44,52.11,56s40.53,43.7,26.88,66c-6,9.87-17.25,15.64-23.46,25.4-14.41,22.67,4.81,52,26,68.42s47.64,32,52.48,58.41c8.21,44.77-51.83,90.7-26.19,128.31,11.34,16.64,36.3,22.56,42.45,41.74,11,34.3-45.09,48.85-62.84,80.2-9.08,16-7.07,35.71-8.83,54s-10.77,39.24-28.91,42.48c-9.22,1.64-18.48-1.81-27.7-3.49-34.44-6.26-71.79,16-82.71,49.23a33,33,0,0,0,32.59,13.18c-60.64,11.72-126.75-29.9-142.41-89.64-9-34.34-3.43-73.11-21.88-103.43-20.81-34.18-67.23-48.58-82.53-85.56-15.38-37.15,7.46-77.85,26.05-113.5s31.77-84,3.08-112.21c-5.91-5.8-13.43-10.46-16.75-18-11-25.15,30.84-41.53,38.67-67.85,10.43-35.07-43.1-60.67-42.21-97.26.91-36.86,56.59-61.28,45.24-96.37-6.62-20.47-32.6-27.42-45-45-17.25-24.51-2.35-58.31,14.94-82.8s38.06-52.07,31.13-81.24c-10.51-44.21-80.33-70.61-64.06-113,12.31-32.08,64.06-30.8,79.59-61.45,20.58-40.63-40.76-96-10.1-129.7,21.5-23.63,65-5.06,90.31-24.51,22.81-17.51,16.81-52.51,11.7-80.81s-.44-66.69,27.75-72.43c25.64-5.23,55.89,22.1,75.36,4.6,10.73-9.65,9.09-26.43,10.65-40.78,5.64-51.61,74.06-84.07,117.6-55.79"/><path class="cls-17" d="M856.83,276.43c-8.72-30,8-61.42,34.22-76.62,14.46-8.4,31.22-12.28,47.84-12.82,17-.55,33,3.85,49.7,5.71,15.11,1.68,28.36-1.61,40.33-11.06,12.24-9.66,22.75-21.77,33.41-33.11,21.53-22.9,43.14-46.63,70.24-63.11,42.52-25.85,111.53-27,132.55,26.73,4.52,11.56,8.11,24.5,17.7,33.07,7.44,6.65,17,9.34,26.77,9.72,10.44.41,20.89-1.59,31.12-3.39s21.84-4.72,32.16-2.14c15.13,3.77,14.12,19.5,13.72,32.2-.4,12.53,2.51,23.77,10.79,33.43,17.5,20.4,45.74,25,71.1,25.86,16.88.55,94.82,1.68,68,34.64-6,7.35-13.9,14.69-13.14,25s10.16,16.33,19.64,17.8c15,2.32,29.33-9,44-5.24,13.79,3.55,18.34,20,18.59,32.53.57,28-17.58,54.54-2.25,81.67,9.77,17.31,28,28,44.42,38.2,15.58,9.67,35.92,20.61,41.31,39.58,4.54,15.93-4.48,30.67-10.85,44.68-5.16,11.35-8.38,23.1-8.32,35.65.12,24.57,11.15,49.34,30,65.28,10.58,9,23.1,14.14,36.28,18,15.9,4.71,33.26,7.77,46.56,18.35,12.56,10,20.34,25.36,12.25,40.69-5.89,11.16-15.65,20.15-17.58,33.15-6.15,41.56,58,45.91,69.27,79.07,6.75,19.8-10.57,35.8-23.83,47.71-13.93,12.52-30.68,24.95-37.78,43-3.85,9.78-3.38,19.58-.6,29.59,3.57,12.9,8.32,26.27-2.91,36.62-14.14,13-36,15.14-52.38,24.61-19.27,11.16-26.93,31.64-16.65,52.22,13.47,27,43.37,35.28,62.78,56.3,25,27,5.24,58.42-17.48,78.84-21.63,19.43-48.17,33.16-63.61,58.82-6.33,10.53-10,22.67-8.52,35,1.5,12.85,8.47,23.74,15.2,34.44,7.63,12.12,15.67,25.52,9.38,40-5.18,12-15.89,20.57-21.72,32.19-10.19,20.28.47,38.66,13.16,54.73s31.57,35.82,17.89,56.93c-15.81,24.38-77,38.57-63.16,76.57,6.71,18.44,39.16,29.82,31.68,52.33-5.41,16.26-24.71,26.78-37.19,37.06-10.89,9-23.69,21.18-20.58,36.77a32.75,32.75,0,0,0,5.83,12.49c4.07,5.69,11.78,12.08,9.47,19.66-3.58,11.76-22.28,17.54-33.07,18.58-23.3,2.25-47.35-9.25-57.35-30.85l-7.78,4.55c7.14,13.18,24.46,19.82,38.23,12.71s19.3-26,11.51-39.46c-9.59-16.55-29.94-17.39-45.39-25.14-9.74-4.88-22.32-15.7-15.07-27.59,4.38-7.18,13-10.92,18.2-17.46,11.09-14,2.05-29.75-11.86-37.19-15.79-8.44-46.29-4.39-50.77-26.84-3.93-19.72,14.75-39.31,28.94-50s30.16-21.51,39.21-37.42c8.79-15.46,7-32.55-3.48-46.67-11.81-16-33.1-27.48-36.33-48.67-2-13.05,7.59-18.2,15.59-26.18a28.14,28.14,0,0,0,8.51-22.72c-1.57-20.09-17.67-32.25-30.91-45.23-13.56-13.28-20-29-15.81-47.82,3.6-16.24,12.12-31,20-45.48,15.2-27.83,32.79-59.52,21.46-92-11.89-34-46.34-54.62-57.54-88.85C1469,996.8,1498.78,961.3,1519.59,931c10.53-15.34,21.88-31.73,26.84-49.9,4.18-15.31,3.74-34.35-9.83-44.93-7.31-5.7-16.85-6.54-24.44-11.62-9.46-6.34-10.12-17.08-8.7-27.4,2.4-17.4,9.72-34.41,7.34-52.24-3.6-27-28.44-41.2-50.79-51.89-24.52-11.73-56-22.19-69.4-47.93-10.81-20.83-10.4-66.27-41.5-68.59-9.34-.7-17.34,3.92-26.15,6-13.33,3.13-18.08-7.09-22.71-17.23-6.93-15.17-17.39-25.85-35.16-25.18-18.88.72-34.72,11.37-49.18,22.45C1199.56,575.06,1177,592,1156.21,579c-23.58-14.68-28.53-51.09-56.6-60-18.37-5.83-34,8-51.78,9.69-15.73,1.52-31.21-3.83-45.17-10.57-28.27-13.64-53.82-35.11-84.74-42.73-13.8-3.4-27.88-3-41.06,2.55-5.29,2.23-3.43,9.69,2.39,8.68,15-2.58,24.81,12.94,26.63,25.9,2.27,16.18-8.22,30.59-18.65,41.84-19.68,21.24-50,43.38-46.23,76.24,1.71,14.86,15.26,26.74,14.84,41.7-.43,15.57-16.49,25.79-28.1,33.39-21.94,14.37-40.9,30.36-55.4,52.52-29,44.4-36.78,100.24-33.16,152.27,1.94,27.9,7.4,55.21,15.29,82,5.29,18,11.27,36.81,9,55.77-1.9,16.14-10.38,30.37-17.84,44.46-13,24.64-21.47,51.15-2.86,75.5,17.7,23.16,47.68,32.94,64,57.38,9.34,14,13,30.73.79,44.22-9.69,10.73-21.73,17.93-24.33,33.29-4.64,27.47,18.67,50.89,38.59,65.8,22.43,16.78,49.66,35.58,44.42,67.49-4.14,25.18-21,46.11-29,70-7.74,23-1.69,42.78,17.78,57.38,10.38,7.77,24.61,14.62,28.08,28.24,2.81,11.06-3.59,20.15-11.22,27.47-16.37,15.71-38.5,26-50.72,45.84-16.33,26.51-.89,62.75-21.35,87.23-12.85,15.38-30.7,5.86-47.2,4.43a77.23,77.23,0,0,0-37.75,6.75A81.61,81.61,0,0,0,683.65,1788a74.12,74.12,0,0,0-9.85,16.62c-2.68,6.32-2.72,8.82,2.16,13.83,8.89,9.12,21.47,12.42,33.82,10.53l-2.4-8.68c-38.09,6.92-77.76-7.21-105.35-33.84-13.76-13.28-24.5-29.74-30.2-48-6.54-21-6.56-43.37-9.62-65-2.82-19.92-8.59-38.8-21.55-54.54-11.65-14.16-27-24.59-41.23-35.9-14.78-11.74-29.47-25.06-35.32-43.62-7.35-23.31.41-47.95,10-69.41,16-35.93,40.89-70.68,37.79-112-1.31-17.43-8.43-32.52-21.49-44.16-6.42-5.71-14.55-11.92-13.5-21.55.84-7.66,7-14.16,12-19.5,10.12-10.75,22.6-20.89,27.65-35.26,4.72-13.39.52-26.91-6.69-38.52-16.14-26-47.43-49.73-27.87-82.66,13.27-22.33,45.23-43.55,39.14-73.07-3.34-16.16-17.37-25.48-29.83-34.55-7.48-5.45-15-11.32-19.34-19.69-5.61-10.78-5-23.3-1.89-34.72,11.14-41,57.43-71.25,52.36-116.87-3.5-31.57-32.5-51.9-51.86-74.1-9.12-10.46-18.13-23.48-15-38.08,3.46-16,18.05-24.33,31.67-30.86,25.94-12.43,55.52-24.86,53.94-58.77-.71-15.33-6.63-29.89-12.1-44C523.86,578,517,562.88,518.19,548c3.32-40.5,60.4-25.07,86.15-35.26,36.5-14.45,30.25-58.34,24.79-89.34-3-17-3.84-36.28,3.79-52.24,9.14-19.11,27.22-19.37,45.37-14.05,14.07,4.13,30.78,11.84,45.29,5.13,16.71-7.73,17.45-26.57,18.54-42.53,2.37-34.63,30-60.57,63.49-66.67,16.61-3,33.49-.32,47.84,8.66,4.93,3.08,9.45-4.7,4.54-7.77-27.72-17.35-63.93-13-90.17,5.24-12.78,8.88-23.36,20.89-29.35,35.34A72.83,72.83,0,0,0,733.39,316c-.92,10,.11,21.81-5.4,30.72-11.57,18.68-38.52,3.48-54.25-.19s-31.83-2.07-42.69,10.89c-23.7,28.28-7.94,67.21-6.57,99.41.89,20.77-4.65,41.83-26.67,48.65-17.21,5.34-35.76,2.41-53.32,5.82-14.53,2.82-27.78,11.2-33,25.58-4.94,13.5-1.28,28.39,3.18,41.48,9.26,27.21,32,65.23,4,88.84-22.53,18.95-62.23,21.16-71.24,53.81-8.09,29.3,20.23,52.24,38.12,70.81,11.28,11.7,23.28,24.78,27.11,41.08,5.86,25-10.31,48.72-23.88,68.14-20.91,29.94-47.61,75-13.58,106.16,12.59,11.54,33.88,19.79,37.32,38.35,2.81,15.19-8.8,28.74-17.8,39.55-9.76,11.7-20.67,23.39-25.87,38s-1.93,29,5.63,42c8.28,14.23,20.32,25.84,28.69,40,9,15.19,7.84,29.51-3.35,43.09-9.61,11.66-23.68,21.13-29.68,35.42-7,16.61,4.44,27.56,15.83,38.14,32.65,30.32,12.5,80.81-4.71,113.72-19.11,36.56-42.86,82.19-18.56,122.08,19.82,32.54,60.55,45.36,79.23,78.75,11.88,21.26,12.33,46.52,15,70.12,2.15,19.26,5.87,38,15.11,55.22,17.52,32.61,50,56.84,85.76,65.72a123.72,123.72,0,0,0,52.1,1.6c5.74-1,3.23-9.54-2.4-8.68-7.57,1.16-19.22-.66-24.16-7.36-2.66-3.62-1.17-5.25.93-9.26a66.8,66.8,0,0,1,7-10.66,73.8,73.8,0,0,1,37.58-24.8,68,68,0,0,1,20.36-2.51c9.2.28,17.85,3.46,26.93,4.55,12.66,1.51,23.85-3.07,31.67-13.14,19.86-25.59,5.21-60,20.87-86.48,12-20.34,35.69-30.24,51.76-46.77,14.83-15.26,17-35.83,1.1-51.49-9.44-9.27-22.34-14.59-30.93-24.78-8.29-9.82-9.18-22-5.94-34,6.59-24.44,23.26-44.93,29.35-69.61,6.52-26.38-4.73-48.2-24.66-65.26-21.35-18.28-55.9-35.37-57.43-67.49-.89-18.79,15.73-26,25.6-39.11,7.46-9.87,9-22.37,5.43-34.08-8.83-29.27-36.31-42.66-58.22-60.67-11.76-9.67-22.71-21.75-24.06-37.63-1.29-15.21,6-29.46,12.94-42.48,6.63-12.52,14-25.1,17.35-39,4.12-16.9,1.53-34.29-2.75-50.89-7.63-29.53-16.29-57.87-19.18-88.41-5.08-53.88,1.62-112.27,32.48-158.09a152,152,0,0,1,26.07-29.57C818.3,721.79,831,715,842.51,706.38c9.59-7.18,19.26-16.2,21.71-28.47C867,664,859,653.07,853.42,641.16c-16.79-36.1,26.16-62.91,45.6-86.63,15.87-19.38,23.59-46.29,5.05-67-7.15-8-16.68-11.45-27.21-9.64l2.39,8.68c30-12.61,59.76,5.49,85.2,20.47,24.47,14.42,51.76,32.48,81.46,30.74,8-.47,15.44-2.58,22.92-5.49,9.07-3.53,18.56-7.9,28.39-4.66,13.72,4.52,21.75,19.7,29.23,31,7.22,10.87,15.08,22.51,26.75,29,15.67,8.76,33.08,4.61,47.85-3.9,17.6-10.15,31.51-26,51.3-32.25,8.68-2.74,19-4.14,27.27.66,8,4.65,11,13.79,14.72,21.71,7.86,16.54,20,21.19,37.33,15.3,8-2.71,16.93-6.16,24.73-1.16,6.53,4.18,9.85,12.41,12.3,19.39,4.9,14,7.28,29,14.14,42.21,5.81,11.19,15.26,19.93,25.58,26.94,22.85,15.52,50.46,22.59,72.9,38.73,10.31,7.42,18.67,17.38,20.56,30.29,2.6,17.71-5.57,35.25-7.57,52.65-1.78,15.54,3,29.56,17.87,36.48,9,4.17,19.57,5.71,24.58,15.35,4.53,8.71,3.47,19.49,1,28.63-5,18.57-17.35,35.37-28.16,51s-22.3,31.06-30.34,48.34c-7,15-11.09,31.23-8.88,47.87,2.16,16.34,10.27,30.71,20.05,43.7,20.49,27.22,49.83,52.8,42.38,90.39-6.37,32.19-29,58.18-40.12,88.62-4.65,12.77-7,26.78-3.25,40.09,5,18,19.63,28.67,32.2,41.33,7.26,7.32,14.2,17.06,14.17,27.87,0,12.21-10.3,16.11-17.4,24-12.63,14.07-6.13,33.71,4,47.17,11.28,15,32.52,26.32,34.74,46.68,2.12,19.45-15.54,34.44-29.28,45.21-14.28,11.19-28.61,21-37.72,37.27-7.16,12.75-10.9,29.1-1.87,41.93,12,17.07,33.71,12.91,50.22,21.61,8.41,4.44,16.36,13.3,10.22,22.77-4.67,7.21-13.47,10.91-18.58,17.86-10.32,14-1.3,29.58,11.35,38.24,14.24,9.73,40.23,9.28,48.49,26.31,4.44,9.13.41,21.68-8.87,26.12-9.63,4.6-21.09-.57-25.91-9.49-2.8-5.17-10.17-.63-7.78,4.55,9.55,20.59,30.58,33,52.75,35.22a64.5,64.5,0,0,0,32.41-5c9.16-4.06,20.78-11.74,22.5-22.4,2.17-13.46-11.77-20.53-15.42-32-2.49-7.85,1.55-14.84,6.69-20.56,12.37-13.74,29.54-22.29,41.62-36.37,12.5-14.57,13.35-31.9,0-46.49-8.14-8.94-21.34-16.24-24-28.93-1.86-8.94,2.81-16.26,9.08-22.19,14.37-13.58,33.55-21.06,47.37-35.38,14.16-14.65,16.49-33.35,6.36-51.09-10.29-18-34.88-35.18-33.66-57.8.73-13.7,12.11-23.88,19.51-34.46,7.09-10.12,10.79-21.43,7.82-33.73-3.13-12.92-11.86-23.6-18.36-34.92-8.16-14.24-10.4-29.13-3.18-44.29,13.63-28.63,43.76-43,66.2-63.45,19.33-17.62,38.26-43.61,28.64-71.07-9.91-28.27-40.68-37.34-60.47-56.68-11.23-11-22.38-28.31-13.72-44,4.81-8.74,14.05-13.77,22.87-17.64,16.64-7.31,39.11-11.1,50.13-27.06,6.65-9.61,6-20.85,3-31.67-3.62-12.94-6.81-24-.21-36.42,9.69-18.25,28.91-30,43.13-44.4,12.64-12.77,22.84-29.2,16.83-47.7-6.14-18.9-25.54-29.51-41.24-39.52-8.25-5.25-17.35-10.74-23.24-18.75-7.32-10-5.11-20.8,1.21-30.76,6.94-11,15.9-21,15.52-34.83-.37-13.21-8.6-24.91-18.5-33-24.68-20.23-60.59-16.48-84.61-37.94-21-18.72-30.71-49.83-22.85-77,4.48-15.48,14.85-28.78,17.22-45a43.69,43.69,0,0,0-5.29-28.09c-9.88-17.22-29-27.39-45.31-37.55-17.88-11.16-39-24.44-42-47.19-4-29.78,17.78-58,2.54-87.28-5.24-10.06-14.5-16.75-26-17.23-14.66-.61-31.06,11.82-45.13,3.77s3.71-22.51,9-30.15c6.08-8.75,6.86-19.13-.66-27.37-9.49-10.4-25.67-14-39-15.75-16.78-2.26-33.75-1.42-50.61-2.69-14.55-1.1-29.22-4.84-41.53-12.95-14-9.2-19.87-21.74-19.13-38.29.53-12.05.66-24.86-9.08-33.55-6.54-5.84-15.62-7.15-24.08-6.87-21.2.69-46.14,12.58-66.69,3.47-14.06-6.23-17.72-22.75-22.94-35.69-4.46-11-10.75-20.92-19.88-28.68-18.13-15.38-42.89-21-66.23-19.73-61.41,3.31-102.11,53.45-141.57,94.53-12.06,12.56-25.22,28.83-43.77,30.53-17.48,1.61-35-5.26-52.53-6-29.51-1.29-61.13,7.17-81.78,29.32-17.71,19-26.32,46.12-19,71.46,1.61,5.56,10.3,3.19,8.68-2.39Z"/><path class="cls-17" d="M1800.14,918.75c-13,4.93-14.91,23.58-8.33,35.8s18.55,20.46,27.82,30.8,16,25.68,9.38,37.9c-5.14,9.5-16.8,14-22.06,23.48-7.49,13.47,1.12,30.3,11.67,41.53s23.83,21.35,27.78,36.25c7.55,28.5-21.74,51.44-41.72,73.13-5.35,5.81-10.41,12.54-11.19,20.39-2.75,27.49,45.34,42.38,38.32,69.1-3.86,14.67-21.68,19.4-36,24.53s-29.69,19.91-22.06,33c2.42,4.15,6.68,6.83,10.83,9.24,18.08,10.51,39.92,23.07,40.6,44,.62,19.35-17.52,33.16-32.35,45.61s-28.9,33.21-18.73,49.68c7.82,12.67,28.12,18.45,27.49,33.32-.81,19-34.76,20.94-37.33,39.77-1,7.43,3.67,15.07,1.5,22.24-1.63,5.42-6.7,9-11.49,12a470.7,470.7,0,0,1-65.11,34.23c-15.47,6.65-35.16,11.87-47.71.63-10.23-9.15-11-25.7-21.11-35-3.57-3.25-8.1-5.39-11.34-9-3.94-4.37-5.48-10.38-6.22-16.21-6.54-51.76,39.73-100.16,30.59-151.52-5.07-28.49-26.81-53-27.12-81.9-.3-27.5,18.79-51.22,25.61-77.87,10.64-41.54-9.32-84.37-11.27-127.21-2.52-55.52,25.11-107.41,51.95-156.07,12.27-22.24,27.5-46.76,52.39-51.81,27.42-5.57,52.76,15.21,71.61,35.89"/><path class="cls-17" d="M1798.94,914.41c-11.7,4.91-16.43,17-15,29.17,1.72,15.2,12.93,25.83,23.47,35.83s26.39,26.58,17.41,42.17c-3.57,6.21-10.23,10.07-15.3,14.92-5.28,5-9,11.27-9.69,18.64-1.5,15.4,8.65,29.3,18.89,39.64,10.7,10.8,24.25,22,24.43,38.51.17,14.55-9.64,27.12-18.88,37.42-10,11.17-23,21.1-30.72,34.09-13.81,23.11,7.26,40.65,22.12,55.76,6.16,6.25,13.82,14.38,12.17,24-2.37,13.66-19.58,18-30.66,21.92-12.32,4.33-26.43,13-29.39,26.77-3.48,16.25,12.94,23.37,24.25,30.3s24.45,15.56,28,29c4,15.42-7.72,28.14-18.29,37.59-11.54,10.33-24.14,19.39-31.08,33.73-6.26,12.94-5.84,26.94,4.47,37.6,6.62,6.84,23.46,14.26,22,25.7-1.14,9.29-13.83,14.09-20.69,18.32-9.05,5.58-17.55,13.15-16.65,24.76.66,8.52,5,16.41-2.76,22.9-6.59,5.52-14.87,9.61-22.31,13.86-16.13,9.21-32.87,17.93-50.16,24.79-13.13,5.21-32.28,10.54-42.65-2.6-4.32-5.47-6.43-12.45-9.31-18.7s-6.72-11.83-12.41-16c-3.48-2.59-7.26-4.73-9.54-8.56s-3.1-8.54-3.54-12.94a88,88,0,0,1,.72-22.22c4.8-30.46,21-57.62,28-87.46,3.42-14.41,4.52-29.36,1.31-43.91-3.4-15.45-11.15-29.48-17.47-43.84-6.7-15.22-11.05-31-7.38-47.59,3.57-16.17,11.88-30.76,18.15-46a116.82,116.82,0,0,0,8.91-50.81c-.87-18.28-4.9-36.22-8.46-54.11s-6.56-36.07-5.76-54.49c.78-18,4.71-35.72,10.35-52.8,11.13-33.71,28.41-65.92,46.4-96.42,7.46-12.64,16.17-25.65,28.7-33.77,13.75-8.9,30.1-9,44.76-2.17,14.87,6.94,27.09,18.48,38.06,30.45,3.93,4.28,10.28-2.1,6.37-6.37-20.89-22.77-52-47.81-84.72-34.34-29,11.94-43.63,45.67-57.44,71.55-17.11,32-33.17,65.71-39.12,101.82a180.35,180.35,0,0,0-.56,54.54c2.61,18.77,7.32,37.16,10.26,55.87s3.73,38.08-1.94,56.43c-5,16.14-13.68,30.81-19.3,46.71-5.48,15.5-6.68,31.37-2.12,47.27,4.61,16.07,13.3,30.53,19.23,46.08a85.17,85.17,0,0,1,4.59,46.26c-2.78,15.56-8.51,30.4-14.16,45.1-5.59,14.54-11.35,29.17-14.45,44.49-2.86,14.1-4.65,31.62,1.7,45,3.84,8.13,11.78,10.77,17.38,17.17,4.57,5.24,6.77,12.26,9.56,18.51,6.32,14.12,17.37,23,33.36,22.35,16.61-.63,32.35-8.73,47-15.77,17.07-8.18,34.23-17.13,49.91-27.79,5.94-4,11-9.13,11.78-16.62.72-7.24-4.12-15.12-1.28-22.1,3.71-9.12,16.35-13.18,23.87-18.37,8.73-6,15.57-15.25,11.67-26.35-4.23-12-17.62-16.73-25.25-26-11.15-13.61.5-31.22,10.67-41.48,10.79-10.88,24.07-19,32.61-32,7.76-11.86,8.94-26.57,1.65-39s-20.34-20.53-32.42-27.66c-6-3.58-15.92-7.47-16-15.76-.08-7.2,6.73-13.39,12.23-17,11.91-7.85,27-8.88,38.3-18.09,8.84-7.22,12.58-18.93,8.44-29.71-3.77-9.82-12-17.25-19.35-24.42-7-6.79-16-14.62-17.75-24.73-2.61-15,14.39-27.54,23.62-37,10.24-10.52,20.89-21.7,26.64-35.43a42.71,42.71,0,0,0-3.86-41c-9-13.48-23.56-22.42-31.41-36.74-3.88-7-6.41-15.91-2.64-23.54,3.3-6.68,10.29-10.72,15.56-15.68,12.18-11.44,12.26-27.26,4.36-41.32-8.22-14.64-23.58-23.08-32.67-37-5.85-9-9-27.32,3.59-32.61,5.26-2.21,3-10.93-2.39-8.68Z"/></g><g id="Calque_7" data-name="Calque 7"><rect class="cls-18" x="372.64" y="1825.71" width="1444.34" height="780.09" rx="19.2"/><circle class="cls-19" cx="1094.81" cy="2215.76" r="111.9"/><rect class="cls-11" x="74.12" y="2604.17" width="2125.77" height="52.05" rx="26.02"/><rect class="cls-20" x="441.93" y="1910.17" width="237.15" height="138.99" rx="5.79" transform="translate(-462.29 194.41) rotate(-14)"/><rect class="cls-21" x="446.93" y="1903.17" width="237.15" height="138.99" rx="5.79" transform="translate(-460.45 195.41) rotate(-14)"/><text class="cls-22" transform="translate(486.76 2013.81) rotate(-14)">&lt; /&gt;</text><g id="Group-3"><polygon id="Path" class="cls-23" points="1714.03 2394.59 1680.06 2390.86 1681.09 2381.56 1737.57 2387.76 1743.35 2335.16 1731.91 2333.9 1733.17 2322.45 1641.29 2312.36 1640.03 2323.81 1628.95 2322.59 1620.89 2395.95 1609.45 2394.7 1608.23 2405.79 1591.43 2403.95 1590.17 2415.4 1573.37 2413.55 1572.11 2425 1560.67 2423.74 1559.45 2434.84 1538.72 2432.56 1539.98 2421.11 1528.9 2419.89 1530.11 2408.8 1518.67 2407.54 1521.15 2385 1508.28 2383.58 1500.65 2453.01 1511.74 2454.22 1510.48 2465.68 1521.92 2466.93 1520.7 2478.03 1531.78 2479.24 1530.53 2490.7 1541.96 2491.95 1540.75 2503.05 1551.83 2504.26 1546.88 2549.35 1571.18 2552.02 1572.6 2539.14 1561.52 2537.92 1562.58 2528.26 1573.66 2529.48 1574.88 2518.39 1586.32 2519.64 1587.58 2508.19 1596.87 2509.21 1595.61 2520.66 1607.05 2521.92 1603.36 2555.56 1627.67 2558.23 1629.08 2545.35 1617.64 2544.09 1622.4 2500.79 1633.84 2502.05 1635.1 2490.59 1646.18 2491.81 1648.03 2474.99 1659.47 2476.25 1663.79 2436.88 1673.09 2437.91 1671.87 2449 1685.1 2450.45 1687.77 2426.12 1665.25 2423.64 1667.53 2402.89 1712.57 2407.84 1714.03 2394.59"/><polygon id="Path-2" data-name="Path" class="cls-24" points="1719.03 2390.59 1685.06 2386.86 1686.09 2377.56 1742.57 2383.76 1748.35 2331.16 1736.91 2329.9 1738.17 2318.45 1646.29 2308.36 1645.03 2319.81 1633.95 2318.59 1625.89 2391.95 1614.45 2390.7 1613.23 2401.79 1596.43 2399.95 1595.17 2411.4 1578.37 2409.55 1577.11 2421 1565.67 2419.74 1564.45 2430.84 1543.72 2428.56 1544.98 2417.11 1533.9 2415.89 1535.11 2404.8 1523.67 2403.54 1526.15 2381 1513.28 2379.58 1505.65 2449.01 1516.74 2450.22 1515.48 2461.68 1526.92 2462.93 1525.7 2474.03 1536.78 2475.24 1535.53 2486.7 1546.96 2487.95 1545.75 2499.05 1556.83 2500.26 1551.88 2545.35 1576.18 2548.02 1577.6 2535.14 1566.52 2533.92 1567.58 2524.26 1578.66 2525.48 1579.88 2514.39 1591.32 2515.64 1592.58 2504.19 1601.87 2505.21 1600.61 2516.66 1612.05 2517.92 1608.36 2551.56 1632.67 2554.23 1634.08 2541.35 1622.64 2540.09 1627.4 2496.79 1638.84 2498.05 1640.1 2486.59 1651.18 2487.81 1653.03 2470.99 1664.47 2472.25 1668.79 2432.88 1678.09 2433.91 1676.87 2445 1690.1 2446.45 1692.77 2422.12 1670.25 2419.64 1672.53 2398.89 1717.57 2403.84 1719.03 2390.59"/><rect id="Rectangle" class="cls-11" x="1654.77" y="2326.75" width="13.68" height="13.67" transform="translate(-839.46 3730.44) rotate(-83.73)"/></g><ellipse class="cls-25" cx="1084.81" cy="2225.76" rx="119.81" ry="119.77"/><ellipse class="cls-26" cx="1094.81" cy="2215.76" rx="119.81" ry="119.77"/><path class="cls-27" d="M1094.91,2294.93c-31.65,0-60.05-19.5-72.34-49.69a7.45,7.45,0,0,1,13.81-5.62c10,24.54,33,40.4,58.53,40.4s48.53-15.86,58.52-40.4a7.45,7.45,0,0,1,13.81,5.62C1155,2275.43,1126.56,2294.93,1094.91,2294.93Z"/><ellipse class="cls-27" cx="1139.24" cy="2188.28" rx="18.22" ry="18.21"/><ellipse class="cls-27" cx="1049.59" cy="2188.28" rx="18.22" ry="18.21"/><path class="cls-28" d="M489.1,2527.64V2360.79H655.94v166.85Z"/><path class="cls-29" d="M509.91,2381.69s0,20.86,20.86,20.86"/><path class="cls-29" d="M621.14,2381.69s0,20.86-20.85,20.86"/><path class="cls-30" d="M621.14,2520.73H572.48v-20.86H558.57v20.86H509.91v-30.47l-11,5.51-10.85-32.54,21.86-21.86v-4.06c0-31.19,24.43-55.62,55.62-55.62s55.61,24.43,55.61,55.62v4.07L643,2463.24l-10.85,32.54-11-5.51Zm-34.76-13.91h20.86v-39.05l16.79,8.4,3.05-9.17-19.84-19.86v-9.83a41.71,41.71,0,1,0-83.42,0v9.83L504,2467l3,9.17,16.8-8.4v39.05h20.85V2486h41.71Z"/><path class="cls-31" d="M593.38,2500.82h20.86v-39.05l16.79,8.4,3.05-9.17-19.84-19.86v-9.83a41.71,41.71,0,1,0-83.42,0v9.83L511,2461l3,9.17,16.8-8.4v39.05h20.85V2480h41.71Z"/><path d="M572.53,2458.11a13.9,13.9,0,0,0,13.9-13.9H558.62A13.9,13.9,0,0,0,572.53,2458.11Z"/><circle cx="551.67" cy="2423.35" r="6.95"/><circle cx="593.38" cy="2423.35" r="6.95"/><path class="cls-32" d="M516.91,2374.69s0,20.86,20.86,20.86"/><path class="cls-32" d="M628.14,2374.69s0,20.86-20.85,20.86"/><path class="cls-33" d="M628.14,2513.73H579.48v-20.86H565.57v20.86H516.91v-30.47l-11,5.51-10.85-32.54,21.86-21.86v-4.06c0-31.19,24.43-55.62,55.62-55.62s55.61,24.43,55.61,55.62v4.07L650,2456.24l-10.85,32.54-11-5.51Zm-34.76-13.91h20.86v-39.05l16.79,8.4,3.05-9.17-19.84-19.86v-9.83a41.71,41.71,0,1,0-83.42,0v9.83L511,2460l3,9.17,16.8-8.4v39.05h20.85V2479h41.71Z"/><path class="cls-34" d="M1626.24,1913.87h0a120.06,120.06,0,0,0-147.7,83.74L1469.3,2031a45.16,45.16,0,0,0,6.38,38c14.43,20.55,43.07,51.85,89.79,64.76s87.38.77,110.31-9.46a45.15,45.15,0,0,0,25-29.3l9.23-33.4A120.07,120.07,0,0,0,1626.24,1913.87Z"/><path class="cls-35" d="M1646.24,1903.87h0a120.06,120.06,0,0,0-147.7,83.74L1489.3,2021a45.16,45.16,0,0,0,6.38,38c14.43,20.55,43.07,51.85,89.79,64.76s87.38.77,110.31-9.46a45.15,45.15,0,0,0,25-29.3l9.23-33.4A120.07,120.07,0,0,0,1646.24,1903.87Z"/><path class="cls-36" d="M1667.93,2028.2c23.15,6.4,34.11,34.34,29.31,51.7l2.67-9.65a74,74,0,0,0-51.64-91.08l-42.43-11.73a74,74,0,0,0-91.09,51.64l-2.66,9.65c4.79-17.36,28.55-35.71,51.69-29.31,12.74,3.52,14.49,15.17,12.56,22.15l-1.6,5.79c-5.78-1.6-24.18-3.57-36.13,1.17l-6.4,2.54a20.28,20.28,0,0,0-8.28,31.72c12.83,15.46,34.33,34.75,66.34,43.6s60.37,3.33,79.31-3.35a20.29,20.29,0,0,0,9.19-31.48l-4.19-5.45c-7.81-10.21-24.62-18-30.4-19.56l1.6-5.79C1647.7,2033.78,1655.2,2024.68,1667.93,2028.2Z"/><path class="cls-37" d="M1599.87,2071.67l-58.85-35c31.51,21.17,23.52,50.1,52.45,58.09s36.93-20.93,74.84-22.91Z"/><path class="cls-38" d="M1541,2036.72c10.27,5.66,20.17,11.3,30.14,16.52s20.1,9.71,30.31,12.64c10.25,2.7,21.29,4,32.49,4.69s22.63.89,34.35,1.33a119.38,119.38,0,0,1-34.2,8c-11.74,1-23.85.73-35.84-2.48-11.94-3.42-22.48-9.38-32-16.29A119.85,119.85,0,0,1,1541,2036.72Z"/><path class="cls-38" d="M1601.47,2065.88c-17.36-4.79-16.75-29.54-16.75-29.54a18,18,0,0,1,22.15-12.56l11.57,3.2a18,18,0,0,1,12.57,22.16S1618.82,2070.68,1601.47,2065.88Z"/><path class="cls-39" d="M1607.51,2066.54c8.86-.48,15.86-7.23,19.84-12.19l-9.52-2.63a6,6,0,0,0-7.38,4.19Zm-11.57-3.2,2.94-10.63a6,6,0,0,0-4.19-7.38l-9.51-2.63C1586.05,2049,1588.58,2058.38,1595.94,2063.34Z"/><path class="cls-40" d="M1570.56,2020s3.2-11.57-8.38-14.77c0,0-5.78-1.6-7.38,4.19s4.18,7.39,4.18,7.39Zm80.85,22.48s3.2-11.57,14.77-8.38c0,0,5.78,1.6,4.18,7.39s-7.38,4.19-7.38,4.19Z"/></g></svg>