<?xml version="1.0" encoding="UTF-8" standalone="no"?>
<svg
   xmlns:dc="http://purl.org/dc/elements/1.1/"
   xmlns:cc="http://creativecommons.org/ns#"
   xmlns:rdf="http://www.w3.org/1999/02/22-rdf-syntax-ns#"
   xmlns:svg="http://www.w3.org/2000/svg"
   xmlns="http://www.w3.org/2000/svg"
   xmlns:sodipodi="http://sodipodi.sourceforge.net/DTD/sodipodi-0.dtd"
   xmlns:inkscape="http://www.inkscape.org/namespaces/inkscape"
   viewBox="0 0 195 130"
   version="1.1"
   id="svg24"
   sodipodi:docname="name.svg"
   inkscape:version="0.92.5 (2060ec1f9f, 2020-04-08)">
  <metadata
     id="metadata28">
    <rdf:RDF>
      <cc:Work
         rdf:about="">
        <dc:format>image/svg+xml</dc:format>
        <dc:type
           rdf:resource="http://purl.org/dc/dcmitype/StillImage" />
      </cc:Work>
    </rdf:RDF>
  </metadata>
  <sodipodi:namedview
     pagecolor="#ffffff"
     bordercolor="#666666"
     borderopacity="1"
     objecttolerance="10"
     gridtolerance="10"
     guidetolerance="10"
     inkscape:pageopacity="0"
     inkscape:pageshadow="2"
     inkscape:window-width="1223"
     inkscape:window-height="811"
     id="namedview26"
     showgrid="false"
     inkscape:zoom="10.269366"
     inkscape:cx="157.56074"
     inkscape:cy="93.431911"
     inkscape:window-x="0"
     inkscape:window-y="0"
     inkscape:window-maximized="0"
     inkscape:current-layer="svg24" />
  <defs
     id="defs4">
    <style
       id="style2">
.cls-1,
.cls-2,
.cls-3,
.cls-4{
    font-size:53px;
    stroke:#1d1d1b;
    stroke-miterlimit:10;
    stroke-width:0.5px;
    font-family:TBF,TheBoldFont, The Bold Font;}
.cls-3{
    fill:#b90047;
}
.cls-2{
    fill:#00b9a1;
}
.cls-1{
    fill:#ffe23f;
}
.cls-4 {
    fill:#fff;
    stroke-width:1px
}
</style>
  </defs>
  <g
     id="Calque_2"
     data-name="Calque 2">
    <g
       id="Calque_1-2"
       data-name="Calque 1">
      <g
         aria-label="ÉliseBrodin"
         transform="translate(0 58)"
         style="font-size:53px;font-family:TBF, TheBoldFont, 'The Bold Font';fill:#ffe23f;stroke:#1d1d1b;stroke-width:0.5px;stroke-miterlimit:10"
         id="text8">
        <path
           d="M 26.924,-29.945 H 10.918 v 5.883 h 12.985 v 8.957 H 10.918 v 6.148 H 26.924 V 0 H 1.961 v -38.902 h 24.963 z m -16.695,-12.19 4.293,-8.957 h 8.056 l -4.346,8.957 z"
           style="font-size:53px;font-family:TBF, TheBoldFont, 'The Bold Font';fill:#ffe23f;stroke:#1d1d1b;stroke-width:0.5px;stroke-miterlimit:10"
           id="path3720" />
        <path
           d="m 54.642932,0 h -23.161 v -38.955 h 8.957 v 29.998 h 14.204 z"
           style="font-size:53px;font-family:TBF, TheBoldFont, 'The Bold Font';fill:#ffe23f;stroke:#1d1d1b;stroke-width:0.5px;stroke-miterlimit:10"
           id="path3722" />
        <path
           d="m 67.256857,0 h -8.957 v -38.955 h 8.957 z"
           style="font-size:53px;font-family:TBF, TheBoldFont, 'The Bold Font';fill:#ffe23f;stroke:#1d1d1b;stroke-width:0.5px;stroke-miterlimit:10"
           id="path3724" />
        <path
           d="m 84.110815,0.742 q -1.855,0 -3.71,-0.53 -1.802,-0.477 -3.445,-1.537 -2.862,-1.855 -4.452,-4.77 -1.59,-2.968 -1.59,-6.466 h 8.957 q 0,1.59 0.689,2.491 0.689,0.848 1.219,1.166 0.954,0.636 2.067,0.689 1.113,0.053 2.173,-0.424 0.742,-0.318 1.166,-0.795 0.477,-0.477 0.689,-0.901 0.265,-0.477 0.318,-0.901 0.053,-0.424 0.053,-0.689 0,-0.265 -0.053,-0.689 -0.053,-0.424 -0.318,-0.901 -0.212,-0.477 -0.689,-0.901 -0.424,-0.477 -1.166,-0.848 -0.583,-0.265 -1.272,-0.477 -0.636,-0.212 -1.378,-0.477 -1.325,-0.424 -2.756,-0.954 -1.431,-0.53 -2.862,-1.431 -1.855,-1.166 -3.127,-2.915 -1.272,-1.749 -1.855,-3.763 -0.53,-2.014 -0.371,-4.134 0.212,-2.173 1.219,-4.134 0.954,-1.802 2.385,-3.127 1.431,-1.325 3.18,-2.067 1.749,-0.795 3.763,-0.954 2.014,-0.159 4.081,0.371 2.014,0.477 3.657,1.537 1.643,1.007 2.809,2.491 1.219,1.431 1.855,3.233 0.636,1.802 0.636,3.763 h -8.957 q 0,-1.219 -0.795,-1.696 -0.742,-0.477 -1.325,-0.636 -0.106,0 -0.53,-0.053 -0.371,-0.106 -0.901,0 -0.477,0.053 -1.007,0.371 -0.53,0.265 -0.848,0.901 -0.424,0.848 -0.159,1.802 0.265,0.901 1.06,1.431 0.742,0.424 1.643,0.795 0.901,0.318 1.908,0.636 0.901,0.265 1.802,0.583 0.954,0.318 1.908,0.742 3.498,1.59 5.459,4.664 2.014,3.074 2.014,6.837 0,3.71 -2.014,6.784 -1.961,3.074 -5.459,4.664 -1.378,0.636 -2.809,0.901 -1.431,0.318 -2.862,0.318 z"
           style="font-size:53px;font-family:TBF, TheBoldFont, 'The Bold Font';fill:#ffe23f;stroke:#1d1d1b;stroke-width:0.5px;stroke-miterlimit:10"
           id="path3726" />
        <path
           d="m 125.39774,-29.945 h -16.006 v 5.883 h 12.985 v 8.957 h -12.985 v 6.148 h 16.006 V 0 h -24.963 v -38.849 l 24.963,-0.053 z"
           style="font-size:53px;font-family:TBF, TheBoldFont, 'The Bold Font';fill:#ffe23f;stroke:#1d1d1b;stroke-width:0.5px;stroke-miterlimit:10"
           id="path3728" />
        <path
           d="m 23.585,26.574 q 2.491,1.855 3.922,4.505 1.431,2.597 1.431,5.671 0,2.756 -1.166,5.194 -1.166,2.385 -3.233,4.187 -2.014,1.802 -4.717,2.862 Q 17.119,50 14.045,50 H 2.65 V 10.939 l 10.335,0.053 q 2.438,0 4.611,0.848 2.173,0.848 3.816,2.332 1.643,1.431 2.544,3.392 0.954,1.908 0.954,4.134 0,2.65 -1.325,4.876 z M 11.607,19.949 V 23.5 h 1.431 q 1.325,-0.053 2.12,-0.636 0.795,-0.583 0.795,-1.166 0,-0.53 -0.795,-1.113 -0.795,-0.636 -2.173,-0.636 z m 2.438,21.041 q 1.166,0 2.226,-0.318 1.113,-0.371 1.908,-0.954 0.848,-0.583 1.325,-1.325 0.477,-0.795 0.477,-1.643 0,-0.848 -0.477,-1.643 -0.477,-0.795 -1.325,-1.378 -0.795,-0.583 -1.908,-0.901 -1.06,-0.371 -2.226,-0.371 h -0.954 -0.106 -1.378 v 8.533 z"
           style=""
           id="path3730" />
        <path
           d="m 43.936958,39.93 q -0.689,0.106 -1.378,0.159 -0.689,0.053 -1.431,0.106 V 50 h -8.957 V 11.204 h 8.957 q 3.339,0.053 6.254,1.219 2.915,1.166 5.088,3.127 2.226,1.961 3.445,4.558 1.272,2.597 1.272,5.565 0,3.127 -1.325,5.83 -1.325,2.65 -3.71,4.611 l 8.586,13.886 h -10.547 z m -2.809,-8.745 q 1.431,-0.053 2.703,-0.477 1.325,-0.477 2.279,-1.219 1.007,-0.742 1.537,-1.696 0.583,-1.007 0.583,-2.12 0,-1.113 -0.583,-2.067 -0.53,-0.954 -1.537,-1.696 -0.954,-0.742 -2.279,-1.166 -1.272,-0.477 -2.703,-0.53 z"
           style=""
           id="path3732" />
        <path
           d="m 81.460903,11.045 q 4.028,0 7.579,1.537 3.551,1.537 6.201,4.187 2.65,2.597 4.187,6.148 1.536997,3.551 1.536997,7.579 0,4.028 -1.536997,7.579 -1.537,3.551 -4.187,6.201 -2.65,2.597 -6.201,4.134 -3.551,1.537 -7.579,1.537 -4.028,0 -7.579,-1.537 -3.551,-1.537 -6.201,-4.134 -2.597,-2.65 -4.134,-6.201 -1.537,-3.551 -1.537,-7.579 0,-4.028 1.537,-7.579 1.537,-3.551 4.134,-6.148 2.65,-2.65 6.201,-4.187 3.551,-1.537 7.579,-1.537 z m 0,29.945 q 2.173,0 4.081,-0.795 1.908,-0.848 3.339,-2.279 1.431,-1.431 2.226,-3.339 0.848,-1.908 0.848,-4.081 0,-2.173 -0.848,-4.081 -0.795,-1.908 -2.226,-3.339 -1.431,-1.431 -3.339,-2.226 -1.908,-0.848 -4.081,-0.848 -2.173,0 -4.081,0.848 -1.908,0.795 -3.339,2.226 -1.431,1.431 -2.279,3.339 -0.795,1.908 -0.795,4.081 0,2.173 0.795,4.081 0.848,1.908 2.279,3.339 1.431,1.431 3.339,2.279 1.908,0.795 4.081,0.795 z"
           style=""
           id="path3734" />
        <path
           d="m 111.35284,10.939 q 3.869,0.212 7.261,1.855 3.445,1.643 5.936,4.293 2.544,2.65 3.975,6.148 1.484,3.498 1.484,7.473 0,3.922 -1.431,7.367 -1.431,3.392 -3.975,5.989 -2.491,2.597 -5.883,4.187 -3.392,1.537 -7.367,1.749 h -8.957 V 10.886 h 8.957 z m 0,30.051 q 2.067,-0.212 3.816,-1.06 1.802,-0.901 3.074,-2.226 1.325,-1.378 2.067,-3.18 0.742,-1.802 0.742,-3.816 0,-2.067 -0.742,-3.922 -0.742,-1.908 -2.067,-3.339 -1.325,-1.484 -3.074,-2.385 -1.749,-0.954 -3.816,-1.166 z"
           style=""
           id="path3736" />
        <path
           d="m 141.03277,50 h -8.957 V 11.045 h 8.957 z"
           style=""
           id="path3738" />
        <path
           d="m 168.75172,11.098 h 8.957 V 50 h -9.699 l -12.72,-22.684 V 50 h -8.957 V 11.204 h 9.752 l 12.667,22.631 z"
           style=""
           id="path3740" />
      </g>
      <g
         aria-label="ÉliseBrodin"
         transform="translate(1 56)"
         style="font-size:53px;font-family:TBF, TheBoldFont, 'The Bold Font';fill:#00b9a1;stroke:#1d1d1b;stroke-width:0.5px;stroke-miterlimit:10"
         id="text12">
        <path
           d="M 26.924,-29.945 H 10.918 v 5.883 h 12.985 v 8.957 H 10.918 v 6.148 H 26.924 V 0 H 1.961 v -38.902 h 24.963 z m -16.695,-12.19 4.293,-8.957 h 8.056 l -4.346,8.957 z"
           style="font-size:53px;font-family:TBF, TheBoldFont, 'The Bold Font';fill:#00b9a1;stroke:#1d1d1b;stroke-width:0.5px;stroke-miterlimit:10"
           id="path3743" />
        <path
           d="m 54.642932,0 h -23.161 v -38.955 h 8.957 v 29.998 h 14.204 z"
           style="font-size:53px;font-family:TBF, TheBoldFont, 'The Bold Font';fill:#00b9a1;stroke:#1d1d1b;stroke-width:0.5px;stroke-miterlimit:10"
           id="path3745" />
        <path
           d="m 67.256857,0 h -8.957 v -38.955 h 8.957 z"
           style="font-size:53px;font-family:TBF, TheBoldFont, 'The Bold Font';fill:#00b9a1;stroke:#1d1d1b;stroke-width:0.5px;stroke-miterlimit:10"
           id="path3747" />
        <path
           d="m 84.110815,0.742 q -1.855,0 -3.71,-0.53 -1.802,-0.477 -3.445,-1.537 -2.862,-1.855 -4.452,-4.77 -1.59,-2.968 -1.59,-6.466 h 8.957 q 0,1.59 0.689,2.491 0.689,0.848 1.219,1.166 0.954,0.636 2.067,0.689 1.113,0.053 2.173,-0.424 0.742,-0.318 1.166,-0.795 0.477,-0.477 0.689,-0.901 0.265,-0.477 0.318,-0.901 0.053,-0.424 0.053,-0.689 0,-0.265 -0.053,-0.689 -0.053,-0.424 -0.318,-0.901 -0.212,-0.477 -0.689,-0.901 -0.424,-0.477 -1.166,-0.848 -0.583,-0.265 -1.272,-0.477 -0.636,-0.212 -1.378,-0.477 -1.325,-0.424 -2.756,-0.954 -1.431,-0.53 -2.862,-1.431 -1.855,-1.166 -3.127,-2.915 -1.272,-1.749 -1.855,-3.763 -0.53,-2.014 -0.371,-4.134 0.212,-2.173 1.219,-4.134 0.954,-1.802 2.385,-3.127 1.431,-1.325 3.18,-2.067 1.749,-0.795 3.763,-0.954 2.014,-0.159 4.081,0.371 2.014,0.477 3.657,1.537 1.643,1.007 2.809,2.491 1.219,1.431 1.855,3.233 0.636,1.802 0.636,3.763 h -8.957 q 0,-1.219 -0.795,-1.696 -0.742,-0.477 -1.325,-0.636 -0.106,0 -0.53,-0.053 -0.371,-0.106 -0.901,0 -0.477,0.053 -1.007,0.371 -0.53,0.265 -0.848,0.901 -0.424,0.848 -0.159,1.802 0.265,0.901 1.06,1.431 0.742,0.424 1.643,0.795 0.901,0.318 1.908,0.636 0.901,0.265 1.802,0.583 0.954,0.318 1.908,0.742 3.498,1.59 5.459,4.664 2.014,3.074 2.014,6.837 0,3.71 -2.014,6.784 -1.961,3.074 -5.459,4.664 -1.378,0.636 -2.809,0.901 -1.431,0.318 -2.862,0.318 z"
           style="font-size:53px;font-family:TBF, TheBoldFont, 'The Bold Font';fill:#00b9a1;stroke:#1d1d1b;stroke-width:0.5px;stroke-miterlimit:10"
           id="path3749" />
        <path
           d="m 125.39774,-29.945 h -16.006 v 5.883 h 12.985 v 8.957 h -12.985 v 6.148 h 16.006 V 0 h -24.963 v -38.849 l 24.963,-0.053 z"
           style="font-size:53px;font-family:TBF, TheBoldFont, 'The Bold Font';fill:#00b9a1;stroke:#1d1d1b;stroke-width:0.5px;stroke-miterlimit:10"
           id="path3751" />
        <path
           d="m 23.585,26.574 q 2.491,1.855 3.922,4.505 1.431,2.597 1.431,5.671 0,2.756 -1.166,5.194 -1.166,2.385 -3.233,4.187 -2.014,1.802 -4.717,2.862 Q 17.119,50 14.045,50 H 2.65 V 10.939 l 10.335,0.053 q 2.438,0 4.611,0.848 2.173,0.848 3.816,2.332 1.643,1.431 2.544,3.392 0.954,1.908 0.954,4.134 0,2.65 -1.325,4.876 z M 11.607,19.949 V 23.5 h 1.431 q 1.325,-0.053 2.12,-0.636 0.795,-0.583 0.795,-1.166 0,-0.53 -0.795,-1.113 -0.795,-0.636 -2.173,-0.636 z m 2.438,21.041 q 1.166,0 2.226,-0.318 1.113,-0.371 1.908,-0.954 0.848,-0.583 1.325,-1.325 0.477,-0.795 0.477,-1.643 0,-0.848 -0.477,-1.643 -0.477,-0.795 -1.325,-1.378 -0.795,-0.583 -1.908,-0.901 -1.06,-0.371 -2.226,-0.371 h -0.954 -0.106 -1.378 v 8.533 z"
           style=""
           id="path3753" />
        <path
           d="m 43.936958,39.93 q -0.689,0.106 -1.378,0.159 -0.689,0.053 -1.431,0.106 V 50 h -8.957 V 11.204 h 8.957 q 3.339,0.053 6.254,1.219 2.915,1.166 5.088,3.127 2.226,1.961 3.445,4.558 1.272,2.597 1.272,5.565 0,3.127 -1.325,5.83 -1.325,2.65 -3.71,4.611 l 8.586,13.886 h -10.547 z m -2.809,-8.745 q 1.431,-0.053 2.703,-0.477 1.325,-0.477 2.279,-1.219 1.007,-0.742 1.537,-1.696 0.583,-1.007 0.583,-2.12 0,-1.113 -0.583,-2.067 -0.53,-0.954 -1.537,-1.696 -0.954,-0.742 -2.279,-1.166 -1.272,-0.477 -2.703,-0.53 z"
           style=""
           id="path3755" />
        <path
           d="m 81.460903,11.045 q 4.028,0 7.579,1.537 3.551,1.537 6.201,4.187 2.65,2.597 4.187,6.148 1.536997,3.551 1.536997,7.579 0,4.028 -1.536997,7.579 -1.537,3.551 -4.187,6.201 -2.65,2.597 -6.201,4.134 -3.551,1.537 -7.579,1.537 -4.028,0 -7.579,-1.537 -3.551,-1.537 -6.201,-4.134 -2.597,-2.65 -4.134,-6.201 -1.537,-3.551 -1.537,-7.579 0,-4.028 1.537,-7.579 1.537,-3.551 4.134,-6.148 2.65,-2.65 6.201,-4.187 3.551,-1.537 7.579,-1.537 z m 0,29.945 q 2.173,0 4.081,-0.795 1.908,-0.848 3.339,-2.279 1.431,-1.431 2.226,-3.339 0.848,-1.908 0.848,-4.081 0,-2.173 -0.848,-4.081 -0.795,-1.908 -2.226,-3.339 -1.431,-1.431 -3.339,-2.226 -1.908,-0.848 -4.081,-0.848 -2.173,0 -4.081,0.848 -1.908,0.795 -3.339,2.226 -1.431,1.431 -2.279,3.339 -0.795,1.908 -0.795,4.081 0,2.173 0.795,4.081 0.848,1.908 2.279,3.339 1.431,1.431 3.339,2.279 1.908,0.795 4.081,0.795 z"
           style=""
           id="path3757" />
        <path
           d="m 111.35284,10.939 q 3.869,0.212 7.261,1.855 3.445,1.643 5.936,4.293 2.544,2.65 3.975,6.148 1.484,3.498 1.484,7.473 0,3.922 -1.431,7.367 -1.431,3.392 -3.975,5.989 -2.491,2.597 -5.883,4.187 -3.392,1.537 -7.367,1.749 h -8.957 V 10.886 h 8.957 z m 0,30.051 q 2.067,-0.212 3.816,-1.06 1.802,-0.901 3.074,-2.226 1.325,-1.378 2.067,-3.18 0.742,-1.802 0.742,-3.816 0,-2.067 -0.742,-3.922 -0.742,-1.908 -2.067,-3.339 -1.325,-1.484 -3.074,-2.385 -1.749,-0.954 -3.816,-1.166 z"
           style=""
           id="path3759" />
        <path
           d="m 141.03277,50 h -8.957 V 11.045 h 8.957 z"
           style=""
           id="path3761" />
        <path
           d="m 168.75172,11.098 h 8.957 V 50 h -9.699 l -12.72,-22.684 V 50 h -8.957 V 11.204 h 9.752 l 12.667,22.631 z"
           style=""
           id="path3763" />
      </g>
      <g
         aria-label="ÉliseBrodin"
         transform="translate(2 54)"
         style="font-size:53px;font-family:TBF, TheBoldFont, 'The Bold Font';fill:#b90047;stroke:#1d1d1b;stroke-width:0.5px;stroke-miterlimit:10"
         id="text16">
        <path
           d="M 26.924,-29.945 H 10.918 v 5.883 h 12.985 v 8.957 H 10.918 v 6.148 H 26.924 V 0 H 1.961 v -38.902 h 24.963 z m -16.695,-12.19 4.293,-8.957 h 8.056 l -4.346,8.957 z"
           style="font-size:53px;font-family:TBF, TheBoldFont, 'The Bold Font';fill:#b90047;stroke:#1d1d1b;stroke-width:0.5px;stroke-miterlimit:10"
           id="path3766" />
        <path
           d="m 54.642932,0 h -23.161 v -38.955 h 8.957 v 29.998 h 14.204 z"
           style="font-size:53px;font-family:TBF, TheBoldFont, 'The Bold Font';fill:#b90047;stroke:#1d1d1b;stroke-width:0.5px;stroke-miterlimit:10"
           id="path3768" />
        <path
           d="m 67.256857,0 h -8.957 v -38.955 h 8.957 z"
           style="font-size:53px;font-family:TBF, TheBoldFont, 'The Bold Font';fill:#b90047;stroke:#1d1d1b;stroke-width:0.5px;stroke-miterlimit:10"
           id="path3770" />
        <path
           d="m 84.110815,0.742 q -1.855,0 -3.71,-0.53 -1.802,-0.477 -3.445,-1.537 -2.862,-1.855 -4.452,-4.77 -1.59,-2.968 -1.59,-6.466 h 8.957 q 0,1.59 0.689,2.491 0.689,0.848 1.219,1.166 0.954,0.636 2.067,0.689 1.113,0.053 2.173,-0.424 0.742,-0.318 1.166,-0.795 0.477,-0.477 0.689,-0.901 0.265,-0.477 0.318,-0.901 0.053,-0.424 0.053,-0.689 0,-0.265 -0.053,-0.689 -0.053,-0.424 -0.318,-0.901 -0.212,-0.477 -0.689,-0.901 -0.424,-0.477 -1.166,-0.848 -0.583,-0.265 -1.272,-0.477 -0.636,-0.212 -1.378,-0.477 -1.325,-0.424 -2.756,-0.954 -1.431,-0.53 -2.862,-1.431 -1.855,-1.166 -3.127,-2.915 -1.272,-1.749 -1.855,-3.763 -0.53,-2.014 -0.371,-4.134 0.212,-2.173 1.219,-4.134 0.954,-1.802 2.385,-3.127 1.431,-1.325 3.18,-2.067 1.749,-0.795 3.763,-0.954 2.014,-0.159 4.081,0.371 2.014,0.477 3.657,1.537 1.643,1.007 2.809,2.491 1.219,1.431 1.855,3.233 0.636,1.802 0.636,3.763 h -8.957 q 0,-1.219 -0.795,-1.696 -0.742,-0.477 -1.325,-0.636 -0.106,0 -0.53,-0.053 -0.371,-0.106 -0.901,0 -0.477,0.053 -1.007,0.371 -0.53,0.265 -0.848,0.901 -0.424,0.848 -0.159,1.802 0.265,0.901 1.06,1.431 0.742,0.424 1.643,0.795 0.901,0.318 1.908,0.636 0.901,0.265 1.802,0.583 0.954,0.318 1.908,0.742 3.498,1.59 5.459,4.664 2.014,3.074 2.014,6.837 0,3.71 -2.014,6.784 -1.961,3.074 -5.459,4.664 -1.378,0.636 -2.809,0.901 -1.431,0.318 -2.862,0.318 z"
           style="font-size:53px;font-family:TBF, TheBoldFont, 'The Bold Font';fill:#b90047;stroke:#1d1d1b;stroke-width:0.5px;stroke-miterlimit:10"
           id="path3772" />
        <path
           d="m 125.39774,-29.945 h -16.006 v 5.883 h 12.985 v 8.957 h -12.985 v 6.148 h 16.006 V 0 h -24.963 v -38.849 l 24.963,-0.053 z"
           style="font-size:53px;font-family:TBF, TheBoldFont, 'The Bold Font';fill:#b90047;stroke:#1d1d1b;stroke-width:0.5px;stroke-miterlimit:10"
           id="path3774" />
        <path
           d="m 23.585,26.574 q 2.491,1.855 3.922,4.505 1.431,2.597 1.431,5.671 0,2.756 -1.166,5.194 -1.166,2.385 -3.233,4.187 -2.014,1.802 -4.717,2.862 Q 17.119,50 14.045,50 H 2.65 V 10.939 l 10.335,0.053 q 2.438,0 4.611,0.848 2.173,0.848 3.816,2.332 1.643,1.431 2.544,3.392 0.954,1.908 0.954,4.134 0,2.65 -1.325,4.876 z M 11.607,19.949 V 23.5 h 1.431 q 1.325,-0.053 2.12,-0.636 0.795,-0.583 0.795,-1.166 0,-0.53 -0.795,-1.113 -0.795,-0.636 -2.173,-0.636 z m 2.438,21.041 q 1.166,0 2.226,-0.318 1.113,-0.371 1.908,-0.954 0.848,-0.583 1.325,-1.325 0.477,-0.795 0.477,-1.643 0,-0.848 -0.477,-1.643 -0.477,-0.795 -1.325,-1.378 -0.795,-0.583 -1.908,-0.901 -1.06,-0.371 -2.226,-0.371 h -0.954 -0.106 -1.378 v 8.533 z"
           style=""
           id="path3776" />
        <path
           d="m 43.936958,39.93 q -0.689,0.106 -1.378,0.159 -0.689,0.053 -1.431,0.106 V 50 h -8.957 V 11.204 h 8.957 q 3.339,0.053 6.254,1.219 2.915,1.166 5.088,3.127 2.226,1.961 3.445,4.558 1.272,2.597 1.272,5.565 0,3.127 -1.325,5.83 -1.325,2.65 -3.71,4.611 l 8.586,13.886 h -10.547 z m -2.809,-8.745 q 1.431,-0.053 2.703,-0.477 1.325,-0.477 2.279,-1.219 1.007,-0.742 1.537,-1.696 0.583,-1.007 0.583,-2.12 0,-1.113 -0.583,-2.067 -0.53,-0.954 -1.537,-1.696 -0.954,-0.742 -2.279,-1.166 -1.272,-0.477 -2.703,-0.53 z"
           style=""
           id="path3778" />
        <path
           d="m 81.460903,11.045 q 4.028,0 7.579,1.537 3.551,1.537 6.201,4.187 2.65,2.597 4.187,6.148 1.536997,3.551 1.536997,7.579 0,4.028 -1.536997,7.579 -1.537,3.551 -4.187,6.201 -2.65,2.597 -6.201,4.134 -3.551,1.537 -7.579,1.537 -4.028,0 -7.579,-1.537 -3.551,-1.537 -6.201,-4.134 -2.597,-2.65 -4.134,-6.201 -1.537,-3.551 -1.537,-7.579 0,-4.028 1.537,-7.579 1.537,-3.551 4.134,-6.148 2.65,-2.65 6.201,-4.187 3.551,-1.537 7.579,-1.537 z m 0,29.945 q 2.173,0 4.081,-0.795 1.908,-0.848 3.339,-2.279 1.431,-1.431 2.226,-3.339 0.848,-1.908 0.848,-4.081 0,-2.173 -0.848,-4.081 -0.795,-1.908 -2.226,-3.339 -1.431,-1.431 -3.339,-2.226 -1.908,-0.848 -4.081,-0.848 -2.173,0 -4.081,0.848 -1.908,0.795 -3.339,2.226 -1.431,1.431 -2.279,3.339 -0.795,1.908 -0.795,4.081 0,2.173 0.795,4.081 0.848,1.908 2.279,3.339 1.431,1.431 3.339,2.279 1.908,0.795 4.081,0.795 z"
           style=""
           id="path3780" />
        <path
           d="m 111.35284,10.939 q 3.869,0.212 7.261,1.855 3.445,1.643 5.936,4.293 2.544,2.65 3.975,6.148 1.484,3.498 1.484,7.473 0,3.922 -1.431,7.367 -1.431,3.392 -3.975,5.989 -2.491,2.597 -5.883,4.187 -3.392,1.537 -7.367,1.749 h -8.957 V 10.886 h 8.957 z m 0,30.051 q 2.067,-0.212 3.816,-1.06 1.802,-0.901 3.074,-2.226 1.325,-1.378 2.067,-3.18 0.742,-1.802 0.742,-3.816 0,-2.067 -0.742,-3.922 -0.742,-1.908 -2.067,-3.339 -1.325,-1.484 -3.074,-2.385 -1.749,-0.954 -3.816,-1.166 z"
           style=""
           id="path3782" />
        <path
           d="m 141.03277,50 h -8.957 V 11.045 h 8.957 z"
           style=""
           id="path3784" />
        <path
           d="m 168.75172,11.098 h 8.957 V 50 h -9.699 l -12.72,-22.684 V 50 h -8.957 V 11.204 h 9.752 l 12.667,22.631 z"
           style=""
           id="path3786" />
      </g>
      <g
         aria-label="ÉliseBrodin"
         transform="translate(3 52)"
         style="font-size:53px;font-family:TBF, TheBoldFont, 'The Bold Font';fill:#ffffff;stroke:#1d1d1b;stroke-width:1px;stroke-miterlimit:10"
         id="text20">
        <path
           d="M 26.924,-29.945 H 10.918 v 5.883 h 12.985 v 8.957 H 10.918 v 6.148 H 26.924 V 0 H 1.961 v -38.902 h 24.963 z m -16.695,-12.19 4.293,-8.957 h 8.056 l -4.346,8.957 z"
           style="font-size:53px;font-family:TBF, TheBoldFont, 'The Bold Font';fill:#ffffff;stroke:#1d1d1b;stroke-width:1px;stroke-miterlimit:10"
           id="path3789" />
        <path
           d="m 54.642932,0 h -23.161 v -38.955 h 8.957 v 29.998 h 14.204 z"
           style="font-size:53px;font-family:TBF, TheBoldFont, 'The Bold Font';fill:#ffffff;stroke:#1d1d1b;stroke-width:1px;stroke-miterlimit:10"
           id="path3791" />
        <path
           d="m 67.256857,0 h -8.957 v -38.955 h 8.957 z"
           style="font-size:53px;font-family:TBF, TheBoldFont, 'The Bold Font';fill:#ffffff;stroke:#1d1d1b;stroke-width:1px;stroke-miterlimit:10"
           id="path3793" />
        <path
           d="m 84.110815,0.742 q -1.855,0 -3.71,-0.53 -1.802,-0.477 -3.445,-1.537 -2.862,-1.855 -4.452,-4.77 -1.59,-2.968 -1.59,-6.466 h 8.957 q 0,1.59 0.689,2.491 0.689,0.848 1.219,1.166 0.954,0.636 2.067,0.689 1.113,0.053 2.173,-0.424 0.742,-0.318 1.166,-0.795 0.477,-0.477 0.689,-0.901 0.265,-0.477 0.318,-0.901 0.053,-0.424 0.053,-0.689 0,-0.265 -0.053,-0.689 -0.053,-0.424 -0.318,-0.901 -0.212,-0.477 -0.689,-0.901 -0.424,-0.477 -1.166,-0.848 -0.583,-0.265 -1.272,-0.477 -0.636,-0.212 -1.378,-0.477 -1.325,-0.424 -2.756,-0.954 -1.431,-0.53 -2.862,-1.431 -1.855,-1.166 -3.127,-2.915 -1.272,-1.749 -1.855,-3.763 -0.53,-2.014 -0.371,-4.134 0.212,-2.173 1.219,-4.134 0.954,-1.802 2.385,-3.127 1.431,-1.325 3.18,-2.067 1.749,-0.795 3.763,-0.954 2.014,-0.159 4.081,0.371 2.014,0.477 3.657,1.537 1.643,1.007 2.809,2.491 1.219,1.431 1.855,3.233 0.636,1.802 0.636,3.763 h -8.957 q 0,-1.219 -0.795,-1.696 -0.742,-0.477 -1.325,-0.636 -0.106,0 -0.53,-0.053 -0.371,-0.106 -0.901,0 -0.477,0.053 -1.007,0.371 -0.53,0.265 -0.848,0.901 -0.424,0.848 -0.159,1.802 0.265,0.901 1.06,1.431 0.742,0.424 1.643,0.795 0.901,0.318 1.908,0.636 0.901,0.265 1.802,0.583 0.954,0.318 1.908,0.742 3.498,1.59 5.459,4.664 2.014,3.074 2.014,6.837 0,3.71 -2.014,6.784 -1.961,3.074 -5.459,4.664 -1.378,0.636 -2.809,0.901 -1.431,0.318 -2.862,0.318 z"
           style="font-size:53px;font-family:TBF, TheBoldFont, 'The Bold Font';fill:#ffffff;stroke:#1d1d1b;stroke-width:1px;stroke-miterlimit:10"
           id="path3795" />
        <path
           d="m 125.39774,-29.945 h -16.006 v 5.883 h 12.985 v 8.957 h -12.985 v 6.148 h 16.006 V 0 h -24.963 v -38.849 l 24.963,-0.053 z"
           style="font-size:53px;font-family:TBF, TheBoldFont, 'The Bold Font';fill:#ffffff;stroke:#1d1d1b;stroke-width:1px;stroke-miterlimit:10"
           id="path3797" />
        <path
           d="m 23.585,26.574 q 2.491,1.855 3.922,4.505 1.431,2.597 1.431,5.671 0,2.756 -1.166,5.194 -1.166,2.385 -3.233,4.187 -2.014,1.802 -4.717,2.862 Q 17.119,50 14.045,50 H 2.65 V 10.939 l 10.335,0.053 q 2.438,0 4.611,0.848 2.173,0.848 3.816,2.332 1.643,1.431 2.544,3.392 0.954,1.908 0.954,4.134 0,2.65 -1.325,4.876 z M 11.607,19.949 V 23.5 h 1.431 q 1.325,-0.053 2.12,-0.636 0.795,-0.583 0.795,-1.166 0,-0.53 -0.795,-1.113 -0.795,-0.636 -2.173,-0.636 z m 2.438,21.041 q 1.166,0 2.226,-0.318 1.113,-0.371 1.908,-0.954 0.848,-0.583 1.325,-1.325 0.477,-0.795 0.477,-1.643 0,-0.848 -0.477,-1.643 -0.477,-0.795 -1.325,-1.378 -0.795,-0.583 -1.908,-0.901 -1.06,-0.371 -2.226,-0.371 h -0.954 -0.106 -1.378 v 8.533 z"
           style=""
           id="path3799" />
        <path
           d="m 43.936958,39.93 q -0.689,0.106 -1.378,0.159 -0.689,0.053 -1.431,0.106 V 50 h -8.957 V 11.204 h 8.957 q 3.339,0.053 6.254,1.219 2.915,1.166 5.088,3.127 2.226,1.961 3.445,4.558 1.272,2.597 1.272,5.565 0,3.127 -1.325,5.83 -1.325,2.65 -3.71,4.611 l 8.586,13.886 h -10.547 z m -2.809,-8.745 q 1.431,-0.053 2.703,-0.477 1.325,-0.477 2.279,-1.219 1.007,-0.742 1.537,-1.696 0.583,-1.007 0.583,-2.12 0,-1.113 -0.583,-2.067 -0.53,-0.954 -1.537,-1.696 -0.954,-0.742 -2.279,-1.166 -1.272,-0.477 -2.703,-0.53 z"
           style=""
           id="path3801" />
        <path
           d="m 81.460903,11.045 q 4.028,0 7.579,1.537 3.551,1.537 6.201,4.187 2.65,2.597 4.187,6.148 1.536997,3.551 1.536997,7.579 0,4.028 -1.536997,7.579 -1.537,3.551 -4.187,6.201 -2.65,2.597 -6.201,4.134 -3.551,1.537 -7.579,1.537 -4.028,0 -7.579,-1.537 -3.551,-1.537 -6.201,-4.134 -2.597,-2.65 -4.134,-6.201 -1.537,-3.551 -1.537,-7.579 0,-4.028 1.537,-7.579 1.537,-3.551 4.134,-6.148 2.65,-2.65 6.201,-4.187 3.551,-1.537 7.579,-1.537 z m 0,29.945 q 2.173,0 4.081,-0.795 1.908,-0.848 3.339,-2.279 1.431,-1.431 2.226,-3.339 0.848,-1.908 0.848,-4.081 0,-2.173 -0.848,-4.081 -0.795,-1.908 -2.226,-3.339 -1.431,-1.431 -3.339,-2.226 -1.908,-0.848 -4.081,-0.848 -2.173,0 -4.081,0.848 -1.908,0.795 -3.339,2.226 -1.431,1.431 -2.279,3.339 -0.795,1.908 -0.795,4.081 0,2.173 0.795,4.081 0.848,1.908 2.279,3.339 1.431,1.431 3.339,2.279 1.908,0.795 4.081,0.795 z"
           style=""
           id="path3803" />
        <path
           d="m 111.35284,10.939 q 3.869,0.212 7.261,1.855 3.445,1.643 5.936,4.293 2.544,2.65 3.975,6.148 1.484,3.498 1.484,7.473 0,3.922 -1.431,7.367 -1.431,3.392 -3.975,5.989 -2.491,2.597 -5.883,4.187 -3.392,1.537 -7.367,1.749 h -8.957 V 10.886 h 8.957 z m 0,30.051 q 2.067,-0.212 3.816,-1.06 1.802,-0.901 3.074,-2.226 1.325,-1.378 2.067,-3.18 0.742,-1.802 0.742,-3.816 0,-2.067 -0.742,-3.922 -0.742,-1.908 -2.067,-3.339 -1.325,-1.484 -3.074,-2.385 -1.749,-0.954 -3.816,-1.166 z"
           style=""
           id="path3805" />
        <path
           d="m 141.03277,50 h -8.957 V 11.045 h 8.957 z"
           style=""
           id="path3807" />
        <path
           d="m 168.75172,11.098 h 8.957 V 50 h -9.699 l -12.72,-22.684 V 50 h -8.957 V 11.204 h 9.752 l 12.667,22.631 z"
           style=""
           id="path3809" />
      </g>
    </g>
  </g>
</svg>
