<?xml version="1.0" encoding="UTF-8" standalone="no"?>
<svg
   xmlns:dc="http://purl.org/dc/elements/1.1/"
   xmlns:cc="http://creativecommons.org/ns#"
   xmlns:rdf="http://www.w3.org/1999/02/22-rdf-syntax-ns#"
   xmlns:svg="http://www.w3.org/2000/svg"
   xmlns="http://www.w3.org/2000/svg"
   xmlns:sodipodi="http://sodipodi.sourceforge.net/DTD/sodipodi-0.dtd"
   xmlns:inkscape="http://www.inkscape.org/namespaces/inkscape"
   viewBox="0 0 135 30"
   version="1.1"
   id="svg44"
   sodipodi:docname="portfolio.svg"
   inkscape:version="0.92.5 (2060ec1f9f, 2020-04-08)">
  <metadata
     id="metadata48">
    <rdf:RDF>
      <cc:Work
         rdf:about="">
        <dc:format>image/svg+xml</dc:format>
        <dc:type
           rdf:resource="http://purl.org/dc/dcmitype/StillImage" />
      </cc:Work>
    </rdf:RDF>
  </metadata>
  <sodipodi:namedview
     pagecolor="#ffffff"
     bordercolor="#666666"
     borderopacity="1"
     objecttolerance="10"
     gridtolerance="10"
     guidetolerance="10"
     inkscape:pageopacity="0"
     inkscape:pageshadow="2"
     inkscape:window-width="640"
     inkscape:window-height="480"
     id="namedview46"
     showgrid="false"
     inkscape:zoom="2.8666667"
     inkscape:cx="67.5"
     inkscape:cy="15"
     inkscape:window-x="0"
     inkscape:window-y="0"
     inkscape:window-maximized="0"
     inkscape:current-layer="svg44" />
  <defs
     id="defs32">
    <style
       id="style30">
.cls-1,
.cls-2,
.cls-3,
.cls-4{
    font-size:25px;
    stroke:#1d1d1b;
    stroke-miterlimit:10;
    stroke-width:0.5px;
    font-family:TBF,TheBoldFont, The Bold Font;}
.cls-3{
    fill:#b90047;
}
.cls-2{
    fill:#00b9a1;
}
.cls-1{
    fill:#ffe23f;
}
.cls-4 {
    fill:#fff;
    stroke-width:1px
}
</style>
  </defs>
  <g
     id="Calque_2"
     data-name="Calque 2">
    <g
       id="Calque_1-2"
       data-name="Calque 1">
      <g
         aria-label="Portfolio"
         transform="translate(0 26)"
         style="font-size:25px;font-family:TBF, TheBoldFont, 'The Bold Font';fill:#ffe23f;stroke:#1d1d1b;stroke-width:0.5px;stroke-miterlimit:10"
         id="text34">
        <path
           d="m 13.05,-10.625 q 0,1.575 -0.6,2.975 -0.575,1.375 -1.625,2.425 -1.025,1.05 -2.4,1.675 -1.375,0.6 -2.95,0.625 V 0 H 1.25 v -18.35 h 4.225 q 1.575,0.025 2.95,0.65 1.375,0.625 2.4,1.675 1.05,1.05 1.625,2.45 0.6,1.375 0.6,2.95 z M 5.475,-7.15 q 0.7,-0.025 1.3,-0.3 0.625,-0.3 1.075,-0.75 0.45,-0.475 0.7,-1.1 0.275,-0.625 0.275,-1.325 0,-0.7 -0.275,-1.325 -0.25,-0.625 -0.7,-1.075 -0.45,-0.475 -1.075,-0.75 -0.6,-0.3 -1.3,-0.325 z"
           style="font-size:25px;font-family:TBF, TheBoldFont, 'The Bold Font';fill:#ffe23f;stroke:#1d1d1b;stroke-width:0.5px;stroke-miterlimit:10"
           id="path3826" />
        <path
           d="m 23.474965,-18.375 q 1.9,0 3.575,0.725 1.675,0.725 2.925,1.975 1.25,1.225 1.975,2.9 0.725,1.675 0.725,3.575 0,1.9 -0.725,3.575 -0.725,1.675 -1.975,2.925 -1.25,1.225 -2.925,1.95 -1.675,0.725 -3.575,0.725 -1.9,0 -3.575,-0.725 -1.675,-0.725 -2.925,-1.95 -1.225,-1.25 -1.95,-2.925 -0.725,-1.675 -0.725,-3.575 0,-1.9 0.725,-3.575 0.725,-1.675 1.95,-2.9 1.25,-1.25 2.925,-1.975 1.675,-0.725 3.575,-0.725 z m 0,14.125 q 1.025,0 1.925,-0.375 0.9,-0.4 1.575,-1.075 0.675,-0.675 1.05,-1.575 0.4,-0.9 0.4,-1.925 0,-1.025 -0.4,-1.925 -0.375,-0.9 -1.05,-1.575 -0.675,-0.675 -1.575,-1.05 -0.9,-0.4 -1.925,-0.4 -1.025,0 -1.925,0.4 -0.9,0.375 -1.575,1.05 -0.675,0.675 -1.075,1.575 -0.375,0.9 -0.375,1.925 0,1.025 0.375,1.925 0.4,0.9 1.075,1.575 0.675,0.675 1.575,1.075 0.9,0.375 1.925,0.375 z"
           style="font-size:25px;font-family:TBF, TheBoldFont, 'The Bold Font';fill:#ffe23f;stroke:#1d1d1b;stroke-width:0.5px;stroke-miterlimit:10"
           id="path3828" />
        <path
           d="m 39.474934,-4.75 q -0.325,0.05 -0.65,0.075 -0.325,0.025 -0.675,0.05 V 0 h -4.225 v -18.3 h 4.225 q 1.575,0.025 2.95,0.575 1.375,0.55 2.4,1.475 1.05,0.925 1.625,2.15 0.6,1.225 0.6,2.625 0,1.475 -0.625,2.75 -0.625,1.25 -1.75,2.175 l 4.05,6.55 h -4.975 z m -1.325,-4.125 q 0.675,-0.025 1.275,-0.225 0.625,-0.225 1.075,-0.575 0.475,-0.35 0.725,-0.8 0.275,-0.475 0.275,-1 0,-0.525 -0.275,-0.975 -0.25,-0.45 -0.725,-0.8 -0.45,-0.35 -1.075,-0.55 -0.6,-0.225 -1.275,-0.25 z"
           style="font-size:25px;font-family:TBF, TheBoldFont, 'The Bold Font';fill:#ffe23f;stroke:#1d1d1b;stroke-width:0.5px;stroke-miterlimit:10"
           id="path3830" />
        <path
           d="m 59.774908,-18.425 v 4.25 h -3.525 V 0 h -4.225 v -14.175 h -3.5 v -4.25 z"
           style="font-size:25px;font-family:TBF, TheBoldFont, 'The Bold Font';fill:#ffe23f;stroke:#1d1d1b;stroke-width:0.5px;stroke-miterlimit:10"
           id="path3832" />
        <path
           d="m 72.64986,-14.125 h -6.85 v 2.775 h 5.425 v 4.225 h -5.425 V 0 h -4.225 v -18.35 h 11.075 z"
           style="font-size:25px;font-family:TBF, TheBoldFont, 'The Bold Font';fill:#ffe23f;stroke:#1d1d1b;stroke-width:0.5px;stroke-miterlimit:10"
           id="path3834" />
        <path
           d="m 82.324826,-18.375 q 1.9,0 3.575,0.725 1.675,0.725 2.925,1.975 1.25,1.225 1.975,2.9 0.725,1.675 0.725,3.575 0,1.9 -0.725,3.575 -0.725,1.675 -1.975,2.925 -1.25,1.225 -2.925,1.95 -1.675,0.725 -3.575,0.725 -1.9,0 -3.575,-0.725 -1.675,-0.725 -2.925,-1.95 -1.225,-1.25 -1.95,-2.925 -0.725,-1.675 -0.725,-3.575 0,-1.9 0.725,-3.575 0.725,-1.675 1.95,-2.9 1.25,-1.25 2.925,-1.975 1.675,-0.725 3.575,-0.725 z m 0,14.125 q 1.025,0 1.925,-0.375 0.9,-0.4 1.575,-1.075 0.675,-0.675 1.05,-1.575 0.4,-0.9 0.4,-1.925 0,-1.025 -0.4,-1.925 -0.375,-0.9 -1.05,-1.575 -0.675,-0.675 -1.575,-1.05 -0.9,-0.4 -1.925,-0.4 -1.025,0 -1.925,0.4 -0.9,0.375 -1.575,1.05 -0.675,0.675 -1.075,1.575 -0.375,0.9 -0.375,1.925 0,1.025 0.375,1.925 0.4,0.9 1.075,1.575 0.675,0.675 1.575,1.075 0.9,0.375 1.925,0.375 z"
           style="font-size:25px;font-family:TBF, TheBoldFont, 'The Bold Font';fill:#ffe23f;stroke:#1d1d1b;stroke-width:0.5px;stroke-miterlimit:10"
           id="path3836" />
        <path
           d="M 103.6998,0 H 92.774796 v -18.375 h 4.225 v 14.15 h 6.700004 z"
           style="font-size:25px;font-family:TBF, TheBoldFont, 'The Bold Font';fill:#ffe23f;stroke:#1d1d1b;stroke-width:0.5px;stroke-miterlimit:10"
           id="path3838" />
        <path
           d="m 109.64976,0 h -4.225 v -18.375 h 4.225 z"
           style="font-size:25px;font-family:TBF, TheBoldFont, 'The Bold Font';fill:#ffe23f;stroke:#1d1d1b;stroke-width:0.5px;stroke-miterlimit:10"
           id="path3840" />
        <path
           d="m 120.07473,-18.375 q 1.9,0 3.575,0.725 1.675,0.725 2.925,1.975 1.25,1.225 1.975,2.9 0.725,1.675 0.725,3.575 0,1.9 -0.725,3.575 -0.725,1.675 -1.975,2.925 -1.25,1.225 -2.925,1.95 -1.675,0.725 -3.575,0.725 -1.9,0 -3.575,-0.725 -1.675,-0.725 -2.925,-1.95 -1.225,-1.25 -1.95,-2.925 -0.725,-1.675 -0.725,-3.575 0,-1.9 0.725,-3.575 0.725,-1.675 1.95,-2.9 1.25,-1.25 2.925,-1.975 1.675,-0.725 3.575,-0.725 z m 0,14.125 q 1.025,0 1.925,-0.375 0.9,-0.4 1.575,-1.075 0.675,-0.675 1.05,-1.575 0.4,-0.9 0.4,-1.925 0,-1.025 -0.4,-1.925 -0.375,-0.9 -1.05,-1.575 -0.675,-0.675 -1.575,-1.05 -0.9,-0.4 -1.925,-0.4 -1.025,0 -1.925,0.4 -0.9,0.375 -1.575,1.05 -0.675,0.675 -1.075,1.575 -0.375,0.9 -0.375,1.925 0,1.025 0.375,1.925 0.4,0.9 1.075,1.575 0.675,0.675 1.575,1.075 0.9,0.375 1.925,0.375 z"
           style="font-size:25px;font-family:TBF, TheBoldFont, 'The Bold Font';fill:#ffe23f;stroke:#1d1d1b;stroke-width:0.5px;stroke-miterlimit:10"
           id="path3842" />
      </g>
      <g
         aria-label="Portfolio"
         transform="translate(1 24)"
         style="font-size:25px;font-family:TBF, TheBoldFont, 'The Bold Font';fill:#00b9a1;stroke:#1d1d1b;stroke-width:0.5px;stroke-miterlimit:10"
         id="text36">
        <path
           d="m 13.05,-10.625 q 0,1.575 -0.6,2.975 -0.575,1.375 -1.625,2.425 -1.025,1.05 -2.4,1.675 -1.375,0.6 -2.95,0.625 V 0 H 1.25 v -18.35 h 4.225 q 1.575,0.025 2.95,0.65 1.375,0.625 2.4,1.675 1.05,1.05 1.625,2.45 0.6,1.375 0.6,2.95 z M 5.475,-7.15 q 0.7,-0.025 1.3,-0.3 0.625,-0.3 1.075,-0.75 0.45,-0.475 0.7,-1.1 0.275,-0.625 0.275,-1.325 0,-0.7 -0.275,-1.325 -0.25,-0.625 -0.7,-1.075 -0.45,-0.475 -1.075,-0.75 -0.6,-0.3 -1.3,-0.325 z"
           style="font-size:25px;font-family:TBF, TheBoldFont, 'The Bold Font';fill:#00b9a1;stroke:#1d1d1b;stroke-width:0.5px;stroke-miterlimit:10"
           id="path3845" />
        <path
           d="m 23.474965,-18.375 q 1.9,0 3.575,0.725 1.675,0.725 2.925,1.975 1.25,1.225 1.975,2.9 0.725,1.675 0.725,3.575 0,1.9 -0.725,3.575 -0.725,1.675 -1.975,2.925 -1.25,1.225 -2.925,1.95 -1.675,0.725 -3.575,0.725 -1.9,0 -3.575,-0.725 -1.675,-0.725 -2.925,-1.95 -1.225,-1.25 -1.95,-2.925 -0.725,-1.675 -0.725,-3.575 0,-1.9 0.725,-3.575 0.725,-1.675 1.95,-2.9 1.25,-1.25 2.925,-1.975 1.675,-0.725 3.575,-0.725 z m 0,14.125 q 1.025,0 1.925,-0.375 0.9,-0.4 1.575,-1.075 0.675,-0.675 1.05,-1.575 0.4,-0.9 0.4,-1.925 0,-1.025 -0.4,-1.925 -0.375,-0.9 -1.05,-1.575 -0.675,-0.675 -1.575,-1.05 -0.9,-0.4 -1.925,-0.4 -1.025,0 -1.925,0.4 -0.9,0.375 -1.575,1.05 -0.675,0.675 -1.075,1.575 -0.375,0.9 -0.375,1.925 0,1.025 0.375,1.925 0.4,0.9 1.075,1.575 0.675,0.675 1.575,1.075 0.9,0.375 1.925,0.375 z"
           style="font-size:25px;font-family:TBF, TheBoldFont, 'The Bold Font';fill:#00b9a1;stroke:#1d1d1b;stroke-width:0.5px;stroke-miterlimit:10"
           id="path3847" />
        <path
           d="m 39.474934,-4.75 q -0.325,0.05 -0.65,0.075 -0.325,0.025 -0.675,0.05 V 0 h -4.225 v -18.3 h 4.225 q 1.575,0.025 2.95,0.575 1.375,0.55 2.4,1.475 1.05,0.925 1.625,2.15 0.6,1.225 0.6,2.625 0,1.475 -0.625,2.75 -0.625,1.25 -1.75,2.175 l 4.05,6.55 h -4.975 z m -1.325,-4.125 q 0.675,-0.025 1.275,-0.225 0.625,-0.225 1.075,-0.575 0.475,-0.35 0.725,-0.8 0.275,-0.475 0.275,-1 0,-0.525 -0.275,-0.975 -0.25,-0.45 -0.725,-0.8 -0.45,-0.35 -1.075,-0.55 -0.6,-0.225 -1.275,-0.25 z"
           style="font-size:25px;font-family:TBF, TheBoldFont, 'The Bold Font';fill:#00b9a1;stroke:#1d1d1b;stroke-width:0.5px;stroke-miterlimit:10"
           id="path3849" />
        <path
           d="m 59.774908,-18.425 v 4.25 h -3.525 V 0 h -4.225 v -14.175 h -3.5 v -4.25 z"
           style="font-size:25px;font-family:TBF, TheBoldFont, 'The Bold Font';fill:#00b9a1;stroke:#1d1d1b;stroke-width:0.5px;stroke-miterlimit:10"
           id="path3851" />
        <path
           d="m 72.64986,-14.125 h -6.85 v 2.775 h 5.425 v 4.225 h -5.425 V 0 h -4.225 v -18.35 h 11.075 z"
           style="font-size:25px;font-family:TBF, TheBoldFont, 'The Bold Font';fill:#00b9a1;stroke:#1d1d1b;stroke-width:0.5px;stroke-miterlimit:10"
           id="path3853" />
        <path
           d="m 82.324826,-18.375 q 1.9,0 3.575,0.725 1.675,0.725 2.925,1.975 1.25,1.225 1.975,2.9 0.725,1.675 0.725,3.575 0,1.9 -0.725,3.575 -0.725,1.675 -1.975,2.925 -1.25,1.225 -2.925,1.95 -1.675,0.725 -3.575,0.725 -1.9,0 -3.575,-0.725 -1.675,-0.725 -2.925,-1.95 -1.225,-1.25 -1.95,-2.925 -0.725,-1.675 -0.725,-3.575 0,-1.9 0.725,-3.575 0.725,-1.675 1.95,-2.9 1.25,-1.25 2.925,-1.975 1.675,-0.725 3.575,-0.725 z m 0,14.125 q 1.025,0 1.925,-0.375 0.9,-0.4 1.575,-1.075 0.675,-0.675 1.05,-1.575 0.4,-0.9 0.4,-1.925 0,-1.025 -0.4,-1.925 -0.375,-0.9 -1.05,-1.575 -0.675,-0.675 -1.575,-1.05 -0.9,-0.4 -1.925,-0.4 -1.025,0 -1.925,0.4 -0.9,0.375 -1.575,1.05 -0.675,0.675 -1.075,1.575 -0.375,0.9 -0.375,1.925 0,1.025 0.375,1.925 0.4,0.9 1.075,1.575 0.675,0.675 1.575,1.075 0.9,0.375 1.925,0.375 z"
           style="font-size:25px;font-family:TBF, TheBoldFont, 'The Bold Font';fill:#00b9a1;stroke:#1d1d1b;stroke-width:0.5px;stroke-miterlimit:10"
           id="path3855" />
        <path
           d="M 103.6998,0 H 92.774796 v -18.375 h 4.225 v 14.15 h 6.700004 z"
           style="font-size:25px;font-family:TBF, TheBoldFont, 'The Bold Font';fill:#00b9a1;stroke:#1d1d1b;stroke-width:0.5px;stroke-miterlimit:10"
           id="path3857" />
        <path
           d="m 109.64976,0 h -4.225 v -18.375 h 4.225 z"
           style="font-size:25px;font-family:TBF, TheBoldFont, 'The Bold Font';fill:#00b9a1;stroke:#1d1d1b;stroke-width:0.5px;stroke-miterlimit:10"
           id="path3859" />
        <path
           d="m 120.07473,-18.375 q 1.9,0 3.575,0.725 1.675,0.725 2.925,1.975 1.25,1.225 1.975,2.9 0.725,1.675 0.725,3.575 0,1.9 -0.725,3.575 -0.725,1.675 -1.975,2.925 -1.25,1.225 -2.925,1.95 -1.675,0.725 -3.575,0.725 -1.9,0 -3.575,-0.725 -1.675,-0.725 -2.925,-1.95 -1.225,-1.25 -1.95,-2.925 -0.725,-1.675 -0.725,-3.575 0,-1.9 0.725,-3.575 0.725,-1.675 1.95,-2.9 1.25,-1.25 2.925,-1.975 1.675,-0.725 3.575,-0.725 z m 0,14.125 q 1.025,0 1.925,-0.375 0.9,-0.4 1.575,-1.075 0.675,-0.675 1.05,-1.575 0.4,-0.9 0.4,-1.925 0,-1.025 -0.4,-1.925 -0.375,-0.9 -1.05,-1.575 -0.675,-0.675 -1.575,-1.05 -0.9,-0.4 -1.925,-0.4 -1.025,0 -1.925,0.4 -0.9,0.375 -1.575,1.05 -0.675,0.675 -1.075,1.575 -0.375,0.9 -0.375,1.925 0,1.025 0.375,1.925 0.4,0.9 1.075,1.575 0.675,0.675 1.575,1.075 0.9,0.375 1.925,0.375 z"
           style="font-size:25px;font-family:TBF, TheBoldFont, 'The Bold Font';fill:#00b9a1;stroke:#1d1d1b;stroke-width:0.5px;stroke-miterlimit:10"
           id="path3861" />
      </g>
      <g
         aria-label="Portfolio"
         transform="translate(2 22)"
         style="font-size:25px;font-family:TBF, TheBoldFont, 'The Bold Font';fill:#b90047;stroke:#1d1d1b;stroke-width:0.5px;stroke-miterlimit:10"
         id="text38">
        <path
           d="m 13.05,-10.625 q 0,1.575 -0.6,2.975 -0.575,1.375 -1.625,2.425 -1.025,1.05 -2.4,1.675 -1.375,0.6 -2.95,0.625 V 0 H 1.25 v -18.35 h 4.225 q 1.575,0.025 2.95,0.65 1.375,0.625 2.4,1.675 1.05,1.05 1.625,2.45 0.6,1.375 0.6,2.95 z M 5.475,-7.15 q 0.7,-0.025 1.3,-0.3 0.625,-0.3 1.075,-0.75 0.45,-0.475 0.7,-1.1 0.275,-0.625 0.275,-1.325 0,-0.7 -0.275,-1.325 -0.25,-0.625 -0.7,-1.075 -0.45,-0.475 -1.075,-0.75 -0.6,-0.3 -1.3,-0.325 z"
           style="font-size:25px;font-family:TBF, TheBoldFont, 'The Bold Font';fill:#b90047;stroke:#1d1d1b;stroke-width:0.5px;stroke-miterlimit:10"
           id="path3864" />
        <path
           d="m 23.474965,-18.375 q 1.9,0 3.575,0.725 1.675,0.725 2.925,1.975 1.25,1.225 1.975,2.9 0.725,1.675 0.725,3.575 0,1.9 -0.725,3.575 -0.725,1.675 -1.975,2.925 -1.25,1.225 -2.925,1.95 -1.675,0.725 -3.575,0.725 -1.9,0 -3.575,-0.725 -1.675,-0.725 -2.925,-1.95 -1.225,-1.25 -1.95,-2.925 -0.725,-1.675 -0.725,-3.575 0,-1.9 0.725,-3.575 0.725,-1.675 1.95,-2.9 1.25,-1.25 2.925,-1.975 1.675,-0.725 3.575,-0.725 z m 0,14.125 q 1.025,0 1.925,-0.375 0.9,-0.4 1.575,-1.075 0.675,-0.675 1.05,-1.575 0.4,-0.9 0.4,-1.925 0,-1.025 -0.4,-1.925 -0.375,-0.9 -1.05,-1.575 -0.675,-0.675 -1.575,-1.05 -0.9,-0.4 -1.925,-0.4 -1.025,0 -1.925,0.4 -0.9,0.375 -1.575,1.05 -0.675,0.675 -1.075,1.575 -0.375,0.9 -0.375,1.925 0,1.025 0.375,1.925 0.4,0.9 1.075,1.575 0.675,0.675 1.575,1.075 0.9,0.375 1.925,0.375 z"
           style="font-size:25px;font-family:TBF, TheBoldFont, 'The Bold Font';fill:#b90047;stroke:#1d1d1b;stroke-width:0.5px;stroke-miterlimit:10"
           id="path3866" />
        <path
           d="m 39.474934,-4.75 q -0.325,0.05 -0.65,0.075 -0.325,0.025 -0.675,0.05 V 0 h -4.225 v -18.3 h 4.225 q 1.575,0.025 2.95,0.575 1.375,0.55 2.4,1.475 1.05,0.925 1.625,2.15 0.6,1.225 0.6,2.625 0,1.475 -0.625,2.75 -0.625,1.25 -1.75,2.175 l 4.05,6.55 h -4.975 z m -1.325,-4.125 q 0.675,-0.025 1.275,-0.225 0.625,-0.225 1.075,-0.575 0.475,-0.35 0.725,-0.8 0.275,-0.475 0.275,-1 0,-0.525 -0.275,-0.975 -0.25,-0.45 -0.725,-0.8 -0.45,-0.35 -1.075,-0.55 -0.6,-0.225 -1.275,-0.25 z"
           style="font-size:25px;font-family:TBF, TheBoldFont, 'The Bold Font';fill:#b90047;stroke:#1d1d1b;stroke-width:0.5px;stroke-miterlimit:10"
           id="path3868" />
        <path
           d="m 59.774908,-18.425 v 4.25 h -3.525 V 0 h -4.225 v -14.175 h -3.5 v -4.25 z"
           style="font-size:25px;font-family:TBF, TheBoldFont, 'The Bold Font';fill:#b90047;stroke:#1d1d1b;stroke-width:0.5px;stroke-miterlimit:10"
           id="path3870" />
        <path
           d="m 72.64986,-14.125 h -6.85 v 2.775 h 5.425 v 4.225 h -5.425 V 0 h -4.225 v -18.35 h 11.075 z"
           style="font-size:25px;font-family:TBF, TheBoldFont, 'The Bold Font';fill:#b90047;stroke:#1d1d1b;stroke-width:0.5px;stroke-miterlimit:10"
           id="path3872" />
        <path
           d="m 82.324826,-18.375 q 1.9,0 3.575,0.725 1.675,0.725 2.925,1.975 1.25,1.225 1.975,2.9 0.725,1.675 0.725,3.575 0,1.9 -0.725,3.575 -0.725,1.675 -1.975,2.925 -1.25,1.225 -2.925,1.95 -1.675,0.725 -3.575,0.725 -1.9,0 -3.575,-0.725 -1.675,-0.725 -2.925,-1.95 -1.225,-1.25 -1.95,-2.925 -0.725,-1.675 -0.725,-3.575 0,-1.9 0.725,-3.575 0.725,-1.675 1.95,-2.9 1.25,-1.25 2.925,-1.975 1.675,-0.725 3.575,-0.725 z m 0,14.125 q 1.025,0 1.925,-0.375 0.9,-0.4 1.575,-1.075 0.675,-0.675 1.05,-1.575 0.4,-0.9 0.4,-1.925 0,-1.025 -0.4,-1.925 -0.375,-0.9 -1.05,-1.575 -0.675,-0.675 -1.575,-1.05 -0.9,-0.4 -1.925,-0.4 -1.025,0 -1.925,0.4 -0.9,0.375 -1.575,1.05 -0.675,0.675 -1.075,1.575 -0.375,0.9 -0.375,1.925 0,1.025 0.375,1.925 0.4,0.9 1.075,1.575 0.675,0.675 1.575,1.075 0.9,0.375 1.925,0.375 z"
           style="font-size:25px;font-family:TBF, TheBoldFont, 'The Bold Font';fill:#b90047;stroke:#1d1d1b;stroke-width:0.5px;stroke-miterlimit:10"
           id="path3874" />
        <path
           d="M 103.6998,0 H 92.774796 v -18.375 h 4.225 v 14.15 h 6.700004 z"
           style="font-size:25px;font-family:TBF, TheBoldFont, 'The Bold Font';fill:#b90047;stroke:#1d1d1b;stroke-width:0.5px;stroke-miterlimit:10"
           id="path3876" />
        <path
           d="m 109.64976,0 h -4.225 v -18.375 h 4.225 z"
           style="font-size:25px;font-family:TBF, TheBoldFont, 'The Bold Font';fill:#b90047;stroke:#1d1d1b;stroke-width:0.5px;stroke-miterlimit:10"
           id="path3878" />
        <path
           d="m 120.07473,-18.375 q 1.9,0 3.575,0.725 1.675,0.725 2.925,1.975 1.25,1.225 1.975,2.9 0.725,1.675 0.725,3.575 0,1.9 -0.725,3.575 -0.725,1.675 -1.975,2.925 -1.25,1.225 -2.925,1.95 -1.675,0.725 -3.575,0.725 -1.9,0 -3.575,-0.725 -1.675,-0.725 -2.925,-1.95 -1.225,-1.25 -1.95,-2.925 -0.725,-1.675 -0.725,-3.575 0,-1.9 0.725,-3.575 0.725,-1.675 1.95,-2.9 1.25,-1.25 2.925,-1.975 1.675,-0.725 3.575,-0.725 z m 0,14.125 q 1.025,0 1.925,-0.375 0.9,-0.4 1.575,-1.075 0.675,-0.675 1.05,-1.575 0.4,-0.9 0.4,-1.925 0,-1.025 -0.4,-1.925 -0.375,-0.9 -1.05,-1.575 -0.675,-0.675 -1.575,-1.05 -0.9,-0.4 -1.925,-0.4 -1.025,0 -1.925,0.4 -0.9,0.375 -1.575,1.05 -0.675,0.675 -1.075,1.575 -0.375,0.9 -0.375,1.925 0,1.025 0.375,1.925 0.4,0.9 1.075,1.575 0.675,0.675 1.575,1.075 0.9,0.375 1.925,0.375 z"
           style="font-size:25px;font-family:TBF, TheBoldFont, 'The Bold Font';fill:#b90047;stroke:#1d1d1b;stroke-width:0.5px;stroke-miterlimit:10"
           id="path3880" />
      </g>
      <g
         aria-label="Portfolio"
         transform="translate(3 20)"
         style="font-size:25px;font-family:TBF, TheBoldFont, 'The Bold Font';fill:#ffffff;stroke:#1d1d1b;stroke-width:1px;stroke-miterlimit:10"
         id="text40">
        <path
           d="m 13.05,-10.625 q 0,1.575 -0.6,2.975 -0.575,1.375 -1.625,2.425 -1.025,1.05 -2.4,1.675 -1.375,0.6 -2.95,0.625 V 0 H 1.25 v -18.35 h 4.225 q 1.575,0.025 2.95,0.65 1.375,0.625 2.4,1.675 1.05,1.05 1.625,2.45 0.6,1.375 0.6,2.95 z M 5.475,-7.15 q 0.7,-0.025 1.3,-0.3 0.625,-0.3 1.075,-0.75 0.45,-0.475 0.7,-1.1 0.275,-0.625 0.275,-1.325 0,-0.7 -0.275,-1.325 -0.25,-0.625 -0.7,-1.075 -0.45,-0.475 -1.075,-0.75 -0.6,-0.3 -1.3,-0.325 z"
           style="font-size:25px;font-family:TBF, TheBoldFont, 'The Bold Font';fill:#ffffff;stroke:#1d1d1b;stroke-width:1px;stroke-miterlimit:10"
           id="path3883" />
        <path
           d="m 23.474965,-18.375 q 1.9,0 3.575,0.725 1.675,0.725 2.925,1.975 1.25,1.225 1.975,2.9 0.725,1.675 0.725,3.575 0,1.9 -0.725,3.575 -0.725,1.675 -1.975,2.925 -1.25,1.225 -2.925,1.95 -1.675,0.725 -3.575,0.725 -1.9,0 -3.575,-0.725 -1.675,-0.725 -2.925,-1.95 -1.225,-1.25 -1.95,-2.925 -0.725,-1.675 -0.725,-3.575 0,-1.9 0.725,-3.575 0.725,-1.675 1.95,-2.9 1.25,-1.25 2.925,-1.975 1.675,-0.725 3.575,-0.725 z m 0,14.125 q 1.025,0 1.925,-0.375 0.9,-0.4 1.575,-1.075 0.675,-0.675 1.05,-1.575 0.4,-0.9 0.4,-1.925 0,-1.025 -0.4,-1.925 -0.375,-0.9 -1.05,-1.575 -0.675,-0.675 -1.575,-1.05 -0.9,-0.4 -1.925,-0.4 -1.025,0 -1.925,0.4 -0.9,0.375 -1.575,1.05 -0.675,0.675 -1.075,1.575 -0.375,0.9 -0.375,1.925 0,1.025 0.375,1.925 0.4,0.9 1.075,1.575 0.675,0.675 1.575,1.075 0.9,0.375 1.925,0.375 z"
           style="font-size:25px;font-family:TBF, TheBoldFont, 'The Bold Font';fill:#ffffff;stroke:#1d1d1b;stroke-width:1px;stroke-miterlimit:10"
           id="path3885" />
        <path
           d="m 39.474934,-4.75 q -0.325,0.05 -0.65,0.075 -0.325,0.025 -0.675,0.05 V 0 h -4.225 v -18.3 h 4.225 q 1.575,0.025 2.95,0.575 1.375,0.55 2.4,1.475 1.05,0.925 1.625,2.15 0.6,1.225 0.6,2.625 0,1.475 -0.625,2.75 -0.625,1.25 -1.75,2.175 l 4.05,6.55 h -4.975 z m -1.325,-4.125 q 0.675,-0.025 1.275,-0.225 0.625,-0.225 1.075,-0.575 0.475,-0.35 0.725,-0.8 0.275,-0.475 0.275,-1 0,-0.525 -0.275,-0.975 -0.25,-0.45 -0.725,-0.8 -0.45,-0.35 -1.075,-0.55 -0.6,-0.225 -1.275,-0.25 z"
           style="font-size:25px;font-family:TBF, TheBoldFont, 'The Bold Font';fill:#ffffff;stroke:#1d1d1b;stroke-width:1px;stroke-miterlimit:10"
           id="path3887" />
        <path
           d="m 59.774908,-18.425 v 4.25 h -3.525 V 0 h -4.225 v -14.175 h -3.5 v -4.25 z"
           style="font-size:25px;font-family:TBF, TheBoldFont, 'The Bold Font';fill:#ffffff;stroke:#1d1d1b;stroke-width:1px;stroke-miterlimit:10"
           id="path3889" />
        <path
           d="m 72.64986,-14.125 h -6.85 v 2.775 h 5.425 v 4.225 h -5.425 V 0 h -4.225 v -18.35 h 11.075 z"
           style="font-size:25px;font-family:TBF, TheBoldFont, 'The Bold Font';fill:#ffffff;stroke:#1d1d1b;stroke-width:1px;stroke-miterlimit:10"
           id="path3891" />
        <path
           d="m 82.324826,-18.375 q 1.9,0 3.575,0.725 1.675,0.725 2.925,1.975 1.25,1.225 1.975,2.9 0.725,1.675 0.725,3.575 0,1.9 -0.725,3.575 -0.725,1.675 -1.975,2.925 -1.25,1.225 -2.925,1.95 -1.675,0.725 -3.575,0.725 -1.9,0 -3.575,-0.725 -1.675,-0.725 -2.925,-1.95 -1.225,-1.25 -1.95,-2.925 -0.725,-1.675 -0.725,-3.575 0,-1.9 0.725,-3.575 0.725,-1.675 1.95,-2.9 1.25,-1.25 2.925,-1.975 1.675,-0.725 3.575,-0.725 z m 0,14.125 q 1.025,0 1.925,-0.375 0.9,-0.4 1.575,-1.075 0.675,-0.675 1.05,-1.575 0.4,-0.9 0.4,-1.925 0,-1.025 -0.4,-1.925 -0.375,-0.9 -1.05,-1.575 -0.675,-0.675 -1.575,-1.05 -0.9,-0.4 -1.925,-0.4 -1.025,0 -1.925,0.4 -0.9,0.375 -1.575,1.05 -0.675,0.675 -1.075,1.575 -0.375,0.9 -0.375,1.925 0,1.025 0.375,1.925 0.4,0.9 1.075,1.575 0.675,0.675 1.575,1.075 0.9,0.375 1.925,0.375 z"
           style="font-size:25px;font-family:TBF, TheBoldFont, 'The Bold Font';fill:#ffffff;stroke:#1d1d1b;stroke-width:1px;stroke-miterlimit:10"
           id="path3893" />
        <path
           d="M 103.6998,0 H 92.774796 v -18.375 h 4.225 v 14.15 h 6.700004 z"
           style="font-size:25px;font-family:TBF, TheBoldFont, 'The Bold Font';fill:#ffffff;stroke:#1d1d1b;stroke-width:1px;stroke-miterlimit:10"
           id="path3895" />
        <path
           d="m 109.64976,0 h -4.225 v -18.375 h 4.225 z"
           style="font-size:25px;font-family:TBF, TheBoldFont, 'The Bold Font';fill:#ffffff;stroke:#1d1d1b;stroke-width:1px;stroke-miterlimit:10"
           id="path3897" />
        <path
           d="m 120.07473,-18.375 q 1.9,0 3.575,0.725 1.675,0.725 2.925,1.975 1.25,1.225 1.975,2.9 0.725,1.675 0.725,3.575 0,1.9 -0.725,3.575 -0.725,1.675 -1.975,2.925 -1.25,1.225 -2.925,1.95 -1.675,0.725 -3.575,0.725 -1.9,0 -3.575,-0.725 -1.675,-0.725 -2.925,-1.95 -1.225,-1.25 -1.95,-2.925 -0.725,-1.675 -0.725,-3.575 0,-1.9 0.725,-3.575 0.725,-1.675 1.95,-2.9 1.25,-1.25 2.925,-1.975 1.675,-0.725 3.575,-0.725 z m 0,14.125 q 1.025,0 1.925,-0.375 0.9,-0.4 1.575,-1.075 0.675,-0.675 1.05,-1.575 0.4,-0.9 0.4,-1.925 0,-1.025 -0.4,-1.925 -0.375,-0.9 -1.05,-1.575 -0.675,-0.675 -1.575,-1.05 -0.9,-0.4 -1.925,-0.4 -1.025,0 -1.925,0.4 -0.9,0.375 -1.575,1.05 -0.675,0.675 -1.075,1.575 -0.375,0.9 -0.375,1.925 0,1.025 0.375,1.925 0.4,0.9 1.075,1.575 0.675,0.675 1.575,1.075 0.9,0.375 1.925,0.375 z"
           style="font-size:25px;font-family:TBF, TheBoldFont, 'The Bold Font';fill:#ffffff;stroke:#1d1d1b;stroke-width:1px;stroke-miterlimit:10"
           id="path3899" />
      </g>
    </g>
  </g>
</svg>
