<?xml version="1.0" encoding="UTF-8" standalone="no"?>
<svg
   xmlns:dc="http://purl.org/dc/elements/1.1/"
   xmlns:cc="http://creativecommons.org/ns#"
   xmlns:rdf="http://www.w3.org/1999/02/22-rdf-syntax-ns#"
   xmlns:svg="http://www.w3.org/2000/svg"
   xmlns="http://www.w3.org/2000/svg"
   xmlns:sodipodi="http://sodipodi.sourceforge.net/DTD/sodipodi-0.dtd"
   xmlns:inkscape="http://www.inkscape.org/namespaces/inkscape"
   viewBox="0 0 104 30"
   version="1.1"
   id="svg63"
   sodipodi:docname="webdev.svg"
   inkscape:version="0.92.5 (2060ec1f9f, 2020-04-08)">
  <metadata
     id="metadata67">
    <rdf:RDF>
      <cc:Work
         rdf:about="">
        <dc:format>image/svg+xml</dc:format>
        <dc:type
           rdf:resource="http://purl.org/dc/dcmitype/StillImage" />
      </cc:Work>
    </rdf:RDF>
  </metadata>
  <sodipodi:namedview
     pagecolor="#ffffff"
     bordercolor="#666666"
     borderopacity="1"
     objecttolerance="10"
     gridtolerance="10"
     guidetolerance="10"
     inkscape:pageopacity="0"
     inkscape:pageshadow="2"
     inkscape:window-width="1486"
     inkscape:window-height="845"
     id="namedview65"
     showgrid="false"
     inkscape:zoom="3.7211538"
     inkscape:cx="2.1498708"
     inkscape:cy="15"
     inkscape:window-x="0"
     inkscape:window-y="0"
     inkscape:window-maximized="0"
     inkscape:current-layer="Calque_2" />
  <defs
     id="defs52">
    <style
       id="style50">
.cls-1,
.cls-2,
.cls-3,
.cls-4{
    font-size:25px;
    stroke:#1d1d1b;
    stroke-miterlimit:10;
    stroke-width:0.5px;
    font-family:TBF, TheBoldFont, The Bold Font;}
.cls-3{
    fill:#b90047;
}
.cls-2{
    fill:#00b9a1;
}
.cls-1{
    fill:#ffe23f;
}
.cls-4 {
    fill:#fff;
    stroke-width:1px
}
</style>
  </defs>
  <g
     id="Calque_2"
     data-name="Calque 2">
    <g
       aria-label="Web dev"
       style="font-size:25px;font-family:TBF, TheBoldFont, 'The Bold Font';fill:#ffe23f;stroke:#1d1d1b;stroke-width:0.5px;stroke-miterlimit:10"
       id="text54">
      <path
         d="m 21.25,7.525 h 4.425 L 20.25,26 H 16.075 L 13.65,16.8 11.55,26 H 7.35 L 1.25,7.525 H 5.7 L 9.1,17.75 11.425,7.525 h 4.15 l 2.7,10.175 z"
         style="font-size:25px;font-family:TBF, TheBoldFont, 'The Bold Font';fill:#ffe23f;stroke:#1d1d1b;stroke-width:0.5px;stroke-miterlimit:10"
         id="path3813" />
      <path
         d="m 37.674995,11.875 h -7.55 v 2.775 h 6.125 v 4.225 h -6.125 v 2.9 h 7.55 V 26 h -11.775 V 7.675 l 11.775,-0.025 z"
         style="font-size:25px;font-family:TBF, TheBoldFont, 'The Bold Font';fill:#ffe23f;stroke:#1d1d1b;stroke-width:0.5px;stroke-miterlimit:10"
         id="path3815" />
      <path
         d="m 49.724968,14.95 q 1.175,0.875 1.85,2.125 0.675,1.225 0.675,2.675 0,1.3 -0.55,2.45 -0.55,1.125 -1.525,1.975 -0.95,0.85 -2.225,1.35 -1.275,0.475 -2.725,0.475 h -5.375 V 7.575 l 4.875,0.025 q 1.15,0 2.175,0.4 1.025,0.4 1.8,1.1 0.775,0.675 1.2,1.6 0.45,0.9 0.45,1.95 0,1.25 -0.625,2.3 z m -5.65,-3.125 V 13.5 h 0.675 q 0.625,-0.025 1,-0.3 0.375,-0.275 0.375,-0.55 0,-0.25 -0.375,-0.525 -0.375,-0.3 -1.025,-0.3 z m 1.15,9.925 q 0.55,0 1.05,-0.15 0.525,-0.175 0.9,-0.45 0.4,-0.275 0.625,-0.625 0.225,-0.375 0.225,-0.775 0,-0.4 -0.225,-0.775 -0.225,-0.375 -0.625,-0.65 -0.375,-0.275 -0.9,-0.425 -0.5,-0.175 -1.05,-0.175 h -0.45 -0.05 -0.65 v 4.025 z"
         style="font-size:25px;font-family:TBF, TheBoldFont, 'The Bold Font';fill:#ffe23f;stroke:#1d1d1b;stroke-width:0.5px;stroke-miterlimit:10"
         id="path3817" />
      <path
         d="m 61.674902,7.575 q 1.825,0.1 3.425,0.875 1.625,0.775 2.8,2.025 1.2,1.25 1.875,2.9 0.7,1.65 0.7,3.525 0,1.85 -0.675,3.475 -0.675,1.6 -1.875,2.825 -1.175,1.225 -2.775,1.975 -1.6,0.725 -3.475,0.825 h -4.225 V 7.55 h 4.225 z m 0,14.175 q 0.975,-0.1 1.8,-0.5 0.85,-0.425 1.45,-1.05 0.625,-0.65 0.975,-1.5 0.35,-0.85 0.35,-1.8 0,-0.975 -0.35,-1.85 -0.35,-0.9 -0.975,-1.575 -0.625,-0.7 -1.45,-1.125 -0.825,-0.45 -1.8,-0.55 z"
         style="font-size:25px;font-family:TBF, TheBoldFont, 'The Bold Font';fill:#ffe23f;stroke:#1d1d1b;stroke-width:0.5px;stroke-miterlimit:10"
         id="path3819" />
      <path
         d="m 82.949875,11.875 h -7.55 v 2.775 h 6.125 v 4.225 h -6.125 v 2.9 h 7.55 V 26 h -11.775 V 7.675 l 11.775,-0.025 z"
         style="font-size:25px;font-family:TBF, TheBoldFont, 'The Bold Font';fill:#ffe23f;stroke:#1d1d1b;stroke-width:0.5px;stroke-miterlimit:10"
         id="path3821" />
      <path
         d="m 94.549847,7.5 h 4.475 l -6.25,18.5 h -4 l -5.925,-18.5 h 4.45 l 3.525,11.35 z"
         style="font-size:25px;font-family:TBF, TheBoldFont, 'The Bold Font';fill:#ffe23f;stroke:#1d1d1b;stroke-width:0.5px;stroke-miterlimit:10"
         id="path3823" />
    </g>
    <g
       aria-label="Web dev"
       style="font-size:25px;font-family:TBF, TheBoldFont, 'The Bold Font';fill:#00b9a1;stroke:#1d1d1b;stroke-width:0.5px;stroke-miterlimit:10"
       id="text56">
      <path
         d="m 22.25,5.525 h 4.425 L 21.25,24 H 17.075 L 14.65,14.8 12.55,24 H 8.35 L 2.25,5.525 H 6.7 L 10.1,15.75 12.425,5.525 h 4.15 l 2.7,10.175 z"
         style="font-size:25px;font-family:TBF, TheBoldFont, 'The Bold Font';fill:#00b9a1;stroke:#1d1d1b;stroke-width:0.5px;stroke-miterlimit:10"
         id="path3800" />
      <path
         d="m 38.674995,9.875 h -7.55 v 2.775 h 6.125 v 4.225 h -6.125 v 2.9 h 7.55 V 24 h -11.775 V 5.675 l 11.775,-0.025 z"
         style="font-size:25px;font-family:TBF, TheBoldFont, 'The Bold Font';fill:#00b9a1;stroke:#1d1d1b;stroke-width:0.5px;stroke-miterlimit:10"
         id="path3802" />
      <path
         d="m 50.724968,12.95 q 1.175,0.875 1.85,2.125 0.675,1.225 0.675,2.675 0,1.3 -0.55,2.45 -0.55,1.125 -1.525,1.975 -0.95,0.85 -2.225,1.35 -1.275,0.475 -2.725,0.475 h -5.375 V 5.575 l 4.875,0.025 q 1.15,0 2.175,0.4 1.025,0.4 1.8,1.1 0.775,0.675 1.2,1.6 0.45,0.9 0.45,1.95 0,1.25 -0.625,2.3 z m -5.65,-3.125 V 11.5 h 0.675 q 0.625,-0.025 1,-0.3 0.375,-0.275 0.375,-0.55 0,-0.25 -0.375,-0.525 -0.375,-0.3 -1.025,-0.3 z m 1.15,9.925 q 0.55,0 1.05,-0.15 0.525,-0.175 0.9,-0.45 0.4,-0.275 0.625,-0.625 0.225,-0.375 0.225,-0.775 0,-0.4 -0.225,-0.775 -0.225,-0.375 -0.625,-0.65 -0.375,-0.275 -0.9,-0.425 -0.5,-0.175 -1.05,-0.175 h -0.45 -0.05 -0.65 v 4.025 z"
         style="font-size:25px;font-family:TBF, TheBoldFont, 'The Bold Font';fill:#00b9a1;stroke:#1d1d1b;stroke-width:0.5px;stroke-miterlimit:10"
         id="path3804" />
      <path
         d="m 62.674902,5.575 q 1.825,0.1 3.425,0.875 1.625,0.775 2.8,2.025 1.2,1.25 1.875,2.9 0.7,1.65 0.7,3.525 0,1.85 -0.675,3.475 -0.675,1.6 -1.875,2.825 -1.175,1.225 -2.775,1.975 -1.6,0.725 -3.475,0.825 h -4.225 V 5.55 h 4.225 z m 0,14.175 q 0.975,-0.1 1.8,-0.5 0.85,-0.425 1.45,-1.05 0.625,-0.65 0.975,-1.5 0.35,-0.85 0.35,-1.8 0,-0.975 -0.35,-1.85 -0.35,-0.9 -0.975,-1.575 -0.625,-0.7 -1.45,-1.125 -0.825,-0.45 -1.8,-0.55 z"
         style="font-size:25px;font-family:TBF, TheBoldFont, 'The Bold Font';fill:#00b9a1;stroke:#1d1d1b;stroke-width:0.5px;stroke-miterlimit:10"
         id="path3806" />
      <path
         d="m 83.949875,9.875 h -7.55 v 2.775 h 6.125 v 4.225 h -6.125 v 2.9 h 7.55 V 24 h -11.775 V 5.675 l 11.775,-0.025 z"
         style="font-size:25px;font-family:TBF, TheBoldFont, 'The Bold Font';fill:#00b9a1;stroke:#1d1d1b;stroke-width:0.5px;stroke-miterlimit:10"
         id="path3808" />
      <path
         d="m 95.549847,5.5 h 4.475003 L 93.774847,24 h -4 l -5.925,-18.5 h 4.45 l 3.525,11.35 z"
         style="font-size:25px;font-family:TBF, TheBoldFont, 'The Bold Font';fill:#00b9a1;stroke:#1d1d1b;stroke-width:0.5px;stroke-miterlimit:10"
         id="path3810" />
    </g>
    <g
       aria-label="Web dev"
       style="font-size:25px;font-family:TBF, TheBoldFont, 'The Bold Font';fill:#b90047;stroke:#1d1d1b;stroke-width:0.5px;stroke-miterlimit:10"
       id="text58">
      <path
         d="m 23.25,3.525 h 4.425 L 22.25,22 H 18.075 L 15.65,12.8 13.55,22 H 9.35 L 3.25,3.525 H 7.7 L 11.1,13.75 13.425,3.525 h 4.15 l 2.7,10.175 z"
         style="font-size:25px;font-family:TBF, TheBoldFont, 'The Bold Font';fill:#b90047;stroke:#1d1d1b;stroke-width:0.5px;stroke-miterlimit:10"
         id="path3787" />
      <path
         d="m 39.674995,7.875 h -7.55 v 2.775 h 6.125 v 4.225 h -6.125 v 2.9 h 7.55 V 22 h -11.775 V 3.675 l 11.775,-0.025 z"
         style="font-size:25px;font-family:TBF, TheBoldFont, 'The Bold Font';fill:#b90047;stroke:#1d1d1b;stroke-width:0.5px;stroke-miterlimit:10"
         id="path3789" />
      <path
         d="m 51.724968,10.95 q 1.175,0.875 1.85,2.125 0.675,1.225 0.675,2.675 0,1.3 -0.55,2.45 -0.55,1.125 -1.525,1.975 -0.95,0.85 -2.225,1.35 -1.275,0.475 -2.725,0.475 h -5.375 V 3.575 l 4.875,0.025 q 1.15,0 2.175,0.4 1.025,0.4 1.8,1.1 0.775,0.675 1.2,1.6 0.45,0.9 0.45,1.95 0,1.25 -0.625,2.3 z m -5.65,-3.125 V 9.5 h 0.675 q 0.625,-0.025 1,-0.3 0.375,-0.275 0.375,-0.55 0,-0.25 -0.375,-0.525 -0.375,-0.3 -1.025,-0.3 z m 1.15,9.925 q 0.55,0 1.05,-0.15 0.525,-0.175 0.9,-0.45 0.4,-0.275 0.625,-0.625 0.225,-0.375 0.225,-0.775 0,-0.4 -0.225,-0.775 -0.225,-0.375 -0.625,-0.65 -0.375,-0.275 -0.9,-0.425 -0.5,-0.175 -1.05,-0.175 h -0.45 -0.05 -0.65 v 4.025 z"
         style="font-size:25px;font-family:TBF, TheBoldFont, 'The Bold Font';fill:#b90047;stroke:#1d1d1b;stroke-width:0.5px;stroke-miterlimit:10"
         id="path3791" />
      <path
         d="m 63.674902,3.575 q 1.825,0.1 3.425,0.875 1.625,0.775 2.8,2.025 1.2,1.25 1.875,2.9 0.7,1.65 0.7,3.525 0,1.85 -0.675,3.475 -0.675,1.6 -1.875,2.825 -1.175,1.225 -2.775,1.975 -1.6,0.725 -3.475,0.825 h -4.225 V 3.55 h 4.225 z m 0,14.175 q 0.975,-0.1 1.8,-0.5 0.85,-0.425 1.45,-1.05 0.625,-0.65 0.975,-1.5 0.35,-0.85 0.35,-1.8 0,-0.975 -0.35,-1.85 -0.35,-0.9 -0.975,-1.575 -0.625,-0.7 -1.45,-1.125 -0.825,-0.45 -1.8,-0.55 z"
         style="font-size:25px;font-family:TBF, TheBoldFont, 'The Bold Font';fill:#b90047;stroke:#1d1d1b;stroke-width:0.5px;stroke-miterlimit:10"
         id="path3793" />
      <path
         d="m 84.949875,7.875 h -7.55 v 2.775 h 6.125 v 4.225 h -6.125 v 2.9 h 7.55 V 22 h -11.775 V 3.675 l 11.775,-0.025 z"
         style="font-size:25px;font-family:TBF, TheBoldFont, 'The Bold Font';fill:#b90047;stroke:#1d1d1b;stroke-width:0.5px;stroke-miterlimit:10"
         id="path3795" />
      <path
         d="m 96.549847,3.5 h 4.475003 L 94.774847,22 h -4 l -5.925,-18.5 h 4.45 l 3.525,11.35 z"
         style="font-size:25px;font-family:TBF, TheBoldFont, 'The Bold Font';fill:#b90047;stroke:#1d1d1b;stroke-width:0.5px;stroke-miterlimit:10"
         id="path3797" />
    </g>
    <g
       aria-label="Web dev"
       style="font-size:25px;font-family:TBF, TheBoldFont, 'The Bold Font';fill:#ffffff;stroke:#1d1d1b;stroke-width:1px;stroke-miterlimit:10"
       id="text60">
      <path
         d="m 24.25,1.525 h 4.425 L 23.25,20 H 19.075 L 16.65,10.8 14.55,20 h -4.2 L 4.25,1.525 H 8.7 L 12.1,11.75 14.425,1.525 h 4.15 l 2.7,10.175 z"
         style="font-size:25px;font-family:TBF, TheBoldFont, 'The Bold Font';fill:#ffffff;stroke:#1d1d1b;stroke-width:1px;stroke-miterlimit:10"
         id="path3774" />
      <path
         d="m 40.674995,5.875 h -7.55 V 8.65 h 6.125 v 4.225 h -6.125 v 2.9 h 7.55 V 20 h -11.775 V 1.675 l 11.775,-0.025 z"
         style="font-size:25px;font-family:TBF, TheBoldFont, 'The Bold Font';fill:#ffffff;stroke:#1d1d1b;stroke-width:1px;stroke-miterlimit:10"
         id="path3776" />
      <path
         d="m 52.724968,8.95 q 1.175,0.875 1.85,2.125 0.675,1.225 0.675,2.675 0,1.3 -0.55,2.45 -0.55,1.125 -1.525,1.975 -0.95,0.85 -2.225,1.35 -1.275,0.475 -2.725,0.475 h -5.375 V 1.575 l 4.875,0.025 q 1.15,0 2.175,0.4 1.025,0.4 1.8,1.1 0.775,0.675 1.2,1.6 0.45,0.9 0.45,1.95 0,1.25 -0.625,2.3 z m -5.65,-3.125 V 7.5 h 0.675 q 0.625,-0.025 1,-0.3 0.375,-0.275 0.375,-0.55 0,-0.25 -0.375,-0.525 -0.375,-0.3 -1.025,-0.3 z m 1.15,9.925 q 0.55,0 1.05,-0.15 0.525,-0.175 0.9,-0.45 0.4,-0.275 0.625,-0.625 0.225,-0.375 0.225,-0.775 0,-0.4 -0.225,-0.775 -0.225,-0.375 -0.625,-0.65 -0.375,-0.275 -0.9,-0.425 -0.5,-0.175 -1.05,-0.175 h -0.45 -0.05 -0.65 v 4.025 z"
         style="font-size:25px;font-family:TBF, TheBoldFont, 'The Bold Font';fill:#ffffff;stroke:#1d1d1b;stroke-width:1px;stroke-miterlimit:10"
         id="path3778" />
      <path
         d="m 64.674902,1.575 q 1.825,0.1 3.425,0.875 1.625,0.775 2.8,2.025 1.2,1.25 1.875,2.9 0.7,1.65 0.7,3.525 0,1.85 -0.675,3.475 -0.675,1.6 -1.875,2.825 -1.175,1.225 -2.775,1.975 -1.6,0.725 -3.475,0.825 h -4.225 V 1.55 h 4.225 z m 0,14.175 q 0.975,-0.1 1.8,-0.5 0.85,-0.425 1.45,-1.05 0.625,-0.65 0.975,-1.5 0.35,-0.85 0.35,-1.8 0,-0.975 -0.35,-1.85 -0.35,-0.9 -0.975,-1.575 -0.625,-0.7 -1.45,-1.125 -0.825,-0.45 -1.8,-0.55 z"
         style="font-size:25px;font-family:TBF, TheBoldFont, 'The Bold Font';fill:#ffffff;stroke:#1d1d1b;stroke-width:1px;stroke-miterlimit:10"
         id="path3780" />
      <path
         d="m 85.949875,5.875 h -7.55 V 8.65 h 6.125 v 4.225 h -6.125 v 2.9 h 7.55 V 20 h -11.775 V 1.675 l 11.775,-0.025 z"
         style="font-size:25px;font-family:TBF, TheBoldFont, 'The Bold Font';fill:#ffffff;stroke:#1d1d1b;stroke-width:1px;stroke-miterlimit:10"
         id="path3782" />
      <path
         d="m 97.549847,1.5 h 4.475003 L 95.774847,20 h -4 l -5.925,-18.5 h 4.45 l 3.525,11.35 z"
         style="font-size:25px;font-family:TBF, TheBoldFont, 'The Bold Font';fill:#ffffff;stroke:#1d1d1b;stroke-width:1px;stroke-miterlimit:10"
         id="path3784" />
    </g>
  </g>
</svg>
