<?xml version="1.0" encoding="UTF-8" standalone="no"?>
<svg
   xmlns:dc="http://purl.org/dc/elements/1.1/"
   xmlns:cc="http://creativecommons.org/ns#"
   xmlns:rdf="http://www.w3.org/1999/02/22-rdf-syntax-ns#"
   xmlns:svg="http://www.w3.org/2000/svg"
   xmlns="http://www.w3.org/2000/svg"
   xmlns:sodipodi="http://sodipodi.sourceforge.net/DTD/sodipodi-0.dtd"
   xmlns:inkscape="http://www.inkscape.org/namespaces/inkscape"
   viewBox="0 0 50 30"
   version="1.1"
   id="svg17"
   sodipodi:docname="logo.svg"
   inkscape:version="0.92.5 (2060ec1f9f, 2020-04-08)">
  <metadata
     id="metadata21">
    <rdf:RDF>
      <cc:Work
         rdf:about="">
        <dc:format>image/svg+xml</dc:format>
        <dc:type
           rdf:resource="http://purl.org/dc/dcmitype/StillImage" />
      </cc:Work>
    </rdf:RDF>
  </metadata>
  <sodipodi:namedview
     pagecolor="#ffffff"
     bordercolor="#666666"
     borderopacity="1"
     objecttolerance="10"
     gridtolerance="10"
     guidetolerance="10"
     inkscape:pageopacity="0"
     inkscape:pageshadow="2"
     inkscape:window-width="640"
     inkscape:window-height="480"
     id="namedview19"
     showgrid="false"
     inkscape:zoom="7.66"
     inkscape:cx="25"
     inkscape:cy="15"
     inkscape:window-x="0"
     inkscape:window-y="0"
     inkscape:window-maximized="0"
     inkscape:current-layer="svg17" />
  <defs
     id="defs4">
    <style
       id="style2">
.cls-1,
.cls-2,
.cls-3,
.cls-4{
    font-size:25px;
    stroke:#1d1d1b;
    stroke-miterlimit:10;
    stroke-width:0.5px;
    font-family:TBF, TheBoldFont, The Bold Font;}
.cls-3{
    fill:#b90047;
}
.cls-2{
    fill:#00b9a1;
}
.cls-1{
    fill:#ffe23f;
}
.cls-4 {
    fill:#fff;
    stroke-width:1px;
    color: #1d1d1b
}
.blink {
    height:1px;
    width: 6px;
    animation: blink 1s steps(2, start) infinite;
    }
        @keyframes blink {
      to {
        visibility: hidden;
      }
    }
</style>
  </defs>
  <g
     id="Calque_2"
     data-name="Calque 2">
    <g
       aria-label="ÉB"
       transform="translate(0 29.5)"
       style="font-size:25px;font-family:TBF, TheBoldFont, 'The Bold Font';fill:#ffe23f;stroke:#1d1d1b;stroke-width:0.5px;stroke-miterlimit:10"
       id="text6">
      <path
         d="M 12.7,-14.125 H 5.15 v 2.775 h 6.125 v 4.225 H 5.15 v 2.9 H 12.7 V 0 H 0.925 V -18.35 H 12.7 Z M 4.825,-19.875 6.85,-24.1 h 3.8 l -2.05,4.225 z"
         style="font-size:25px;font-family:TBF, TheBoldFont, 'The Bold Font';fill:#ffe23f;stroke:#1d1d1b;stroke-width:0.5px;stroke-miterlimit:10"
         id="path23" />
      <path
         d="m 24.724968,-11.05 q 1.175,0.875 1.85,2.125 0.675,1.225 0.675,2.675 0,1.3 -0.55,2.45 -0.55,1.125 -1.525,1.975 -0.95,0.85 -2.225,1.35 -1.275,0.475 -2.725,0.475 h -5.375 v -18.425 l 4.875,0.025 q 1.15,0 2.175,0.4 1.025,0.4 1.8,1.1 0.775,0.675 1.2,1.6 0.45,0.9 0.45,1.95 0,1.25 -0.625,2.3 z m -5.65,-3.125 v 1.675 h 0.675 q 0.625,-0.025 1,-0.3 0.375,-0.275 0.375,-0.55 0,-0.25 -0.375,-0.525 -0.375,-0.3 -1.025,-0.3 z m 1.15,9.925 q 0.55,0 1.05,-0.15 0.525,-0.175 0.9,-0.45 0.4,-0.275 0.625,-0.625 0.225,-0.375 0.225,-0.775 0,-0.4 -0.225,-0.775 -0.225,-0.375 -0.625,-0.65 -0.375,-0.275 -0.9,-0.425 -0.5,-0.175 -1.05,-0.175 h -0.45 -0.05 -0.65 v 4.025 z"
         style="font-size:25px;font-family:TBF, TheBoldFont, 'The Bold Font';fill:#ffe23f;stroke:#1d1d1b;stroke-width:0.5px;stroke-miterlimit:10"
         id="path25" />
    </g>
    <g
       aria-label="ÉB"
       transform="translate(1 28)"
       style="font-size:25px;font-family:TBF, TheBoldFont, 'The Bold Font';fill:#00b9a1;stroke:#1d1d1b;stroke-width:0.5px;stroke-miterlimit:10"
       id="text8">
      <path
         d="M 12.7,-14.125 H 5.15 v 2.775 h 6.125 v 4.225 H 5.15 v 2.9 H 12.7 V 0 H 0.925 V -18.35 H 12.7 Z M 4.825,-19.875 6.85,-24.1 h 3.8 l -2.05,4.225 z"
         style="font-size:25px;font-family:TBF, TheBoldFont, 'The Bold Font';fill:#00b9a1;stroke:#1d1d1b;stroke-width:0.5px;stroke-miterlimit:10"
         id="path28" />
      <path
         d="m 24.724968,-11.05 q 1.175,0.875 1.85,2.125 0.675,1.225 0.675,2.675 0,1.3 -0.55,2.45 -0.55,1.125 -1.525,1.975 -0.95,0.85 -2.225,1.35 -1.275,0.475 -2.725,0.475 h -5.375 v -18.425 l 4.875,0.025 q 1.15,0 2.175,0.4 1.025,0.4 1.8,1.1 0.775,0.675 1.2,1.6 0.45,0.9 0.45,1.95 0,1.25 -0.625,2.3 z m -5.65,-3.125 v 1.675 h 0.675 q 0.625,-0.025 1,-0.3 0.375,-0.275 0.375,-0.55 0,-0.25 -0.375,-0.525 -0.375,-0.3 -1.025,-0.3 z m 1.15,9.925 q 0.55,0 1.05,-0.15 0.525,-0.175 0.9,-0.45 0.4,-0.275 0.625,-0.625 0.225,-0.375 0.225,-0.775 0,-0.4 -0.225,-0.775 -0.225,-0.375 -0.625,-0.65 -0.375,-0.275 -0.9,-0.425 -0.5,-0.175 -1.05,-0.175 h -0.45 -0.05 -0.65 v 4.025 z"
         style="font-size:25px;font-family:TBF, TheBoldFont, 'The Bold Font';fill:#00b9a1;stroke:#1d1d1b;stroke-width:0.5px;stroke-miterlimit:10"
         id="path30" />
    </g>
    <g
       aria-label="ÉB"
       transform="translate(2 26.5)"
       style="font-size:25px;font-family:TBF, TheBoldFont, 'The Bold Font';fill:#b90047;stroke:#1d1d1b;stroke-width:0.5px;stroke-miterlimit:10"
       id="text10">
      <path
         d="M 12.7,-14.125 H 5.15 v 2.775 h 6.125 v 4.225 H 5.15 v 2.9 H 12.7 V 0 H 0.925 V -18.35 H 12.7 Z M 4.825,-19.875 6.85,-24.1 h 3.8 l -2.05,4.225 z"
         style="font-size:25px;font-family:TBF, TheBoldFont, 'The Bold Font';fill:#b90047;stroke:#1d1d1b;stroke-width:0.5px;stroke-miterlimit:10"
         id="path33" />
      <path
         d="m 24.724968,-11.05 q 1.175,0.875 1.85,2.125 0.675,1.225 0.675,2.675 0,1.3 -0.55,2.45 -0.55,1.125 -1.525,1.975 -0.95,0.85 -2.225,1.35 -1.275,0.475 -2.725,0.475 h -5.375 v -18.425 l 4.875,0.025 q 1.15,0 2.175,0.4 1.025,0.4 1.8,1.1 0.775,0.675 1.2,1.6 0.45,0.9 0.45,1.95 0,1.25 -0.625,2.3 z m -5.65,-3.125 v 1.675 h 0.675 q 0.625,-0.025 1,-0.3 0.375,-0.275 0.375,-0.55 0,-0.25 -0.375,-0.525 -0.375,-0.3 -1.025,-0.3 z m 1.15,9.925 q 0.55,0 1.05,-0.15 0.525,-0.175 0.9,-0.45 0.4,-0.275 0.625,-0.625 0.225,-0.375 0.225,-0.775 0,-0.4 -0.225,-0.775 -0.225,-0.375 -0.625,-0.65 -0.375,-0.275 -0.9,-0.425 -0.5,-0.175 -1.05,-0.175 h -0.45 -0.05 -0.65 v 4.025 z"
         style="font-size:25px;font-family:TBF, TheBoldFont, 'The Bold Font';fill:#b90047;stroke:#1d1d1b;stroke-width:0.5px;stroke-miterlimit:10"
         id="path35" />
    </g>
    <g
       aria-label="ÉB"
       transform="translate(3 25)"
       style="color:#1d1d1b;font-size:25px;font-family:TBF, TheBoldFont, 'The Bold Font';fill:#ffffff;stroke:#1d1d1b;stroke-width:1px;stroke-miterlimit:10"
       id="text12">
      <path
         d="M 12.7,-14.125 H 5.15 v 2.775 h 6.125 v 4.225 H 5.15 v 2.9 H 12.7 V 0 H 0.925 V -18.35 H 12.7 Z M 4.825,-19.875 6.85,-24.1 h 3.8 l -2.05,4.225 z"
         style="color:#1d1d1b;font-size:25px;font-family:TBF, TheBoldFont, 'The Bold Font';fill:#ffffff;stroke:#1d1d1b;stroke-width:1px;stroke-miterlimit:10"
         id="path38" />
      <path
         d="m 24.724968,-11.05 q 1.175,0.875 1.85,2.125 0.675,1.225 0.675,2.675 0,1.3 -0.55,2.45 -0.55,1.125 -1.525,1.975 -0.95,0.85 -2.225,1.35 -1.275,0.475 -2.725,0.475 h -5.375 v -18.425 l 4.875,0.025 q 1.15,0 2.175,0.4 1.025,0.4 1.8,1.1 0.775,0.675 1.2,1.6 0.45,0.9 0.45,1.95 0,1.25 -0.625,2.3 z m -5.65,-3.125 v 1.675 h 0.675 q 0.625,-0.025 1,-0.3 0.375,-0.275 0.375,-0.55 0,-0.25 -0.375,-0.525 -0.375,-0.3 -1.025,-0.3 z m 1.15,9.925 q 0.55,0 1.05,-0.15 0.525,-0.175 0.9,-0.45 0.4,-0.275 0.625,-0.625 0.225,-0.375 0.225,-0.775 0,-0.4 -0.225,-0.775 -0.225,-0.375 -0.625,-0.65 -0.375,-0.275 -0.9,-0.425 -0.5,-0.175 -1.05,-0.175 h -0.45 -0.05 -0.65 v 4.025 z"
         style="color:#1d1d1b;font-size:25px;font-family:TBF, TheBoldFont, 'The Bold Font';fill:#ffffff;stroke:#1d1d1b;stroke-width:1px;stroke-miterlimit:10"
         id="path40" />
    </g>
    <rect
       class="blink"
       x="30"
       y="28"
       id="rect14" />
  </g>
</svg>
